<svg preserveAspectRatio="none" xmlns="http://www.w3.org/2000/svg" viewBox="0 0 861.56978 3919.34799"><title>bottom</title><g id="Layer_2" data-name="Layer 2"><g id="Bottom"><path d="M80.9979,3840.49563l-3.83366-3.9296a25.53673,25.53673,0,0,1-6.1485-10.57152c-2.36641-7.94785-8.0513-22.34688-19.91542-31.46767-1.56048-1.19965-9.91432-4.10908-17.992-8.574a36.90227,36.90227,0,0,1-18.8108-33.29906l.237-9.2319a7.73987,7.73987,0,0,1,9.82047-7.38726l2.88706.84552A18.04929,18.04929,0,0,0,49.63632,3724.09l6.28991-22.78057c2.34021-8.47571-3.76844-16.93771-12.3602-17.11744a20.11148,20.11148,0,0,1-3.14342-.20917c-17.17316-4.40074-9.50431-27.54151-15.51209-47.58261a53.75194,53.75194,0,0,1,3.57578-39.22818l18.51052-37.24489a26.41325,26.41325,0,0,0,1.5141-3.73843L60.759,3517.74022a34.03629,34.03629,0,0,0-2.033-25.6361l-22.86543-45.259a45.8159,45.8159,0,0,1-3.0132-7.57135l-17.687-59.33353a38.59556,38.59556,0,0,1,3.20093-29.687L33.108,3323.64948a20.30087,20.30087,0,0,1,12.12532-9.717h0a24.375,24.375,0,0,0,17.33631-25.19775L59.2669,3239.9844a79.50764,79.50764,0,0,0-3.94023-19.9023L36.37,3163.55516a17.61683,17.61683,0,0,0-4.084-6.70322l-11.85722-12.154a9.22087,9.22087,0,0,1-.60949-12.11069l5.349-6.7482a14.76425,14.76425,0,0,1,8.99226-5.39573l8.7511-1.54657a23.80647,23.80647,0,0,0,19.23986-20.16833l5.27663-36.19661a172.08342,172.08342,0,0,0-7.83026-81.60752l-21.31082-60.899-21.539-61.81849a100.05234,100.05234,0,0,1-1.5869-60.77049l1.90787-6.56529a67.303,67.303,0,0,1,13.75353-25.31779L54.03476,2738.786a69.51138,69.51138,0,0,0,16.74361-49.61141l-3.8516-65.14193a21.93773,21.93773,0,0,0-11.93711-18.49318,33.65649,33.65649,0,0,1-16.70259-17.14615c-6.40663-15.32293-10.94221-27.86192-19.28126-50.67952a143.50215,143.50215,0,0,1-7.99969-63.35739c2.87627-29.088,8.51172-69.00488,18.73878-87.35017a38.57136,38.57136,0,0,1,8.8062-10.75033,45.50637,45.50637,0,0,0,16.8634-37.17965l-1.50559-33.43773A43.60354,43.60354,0,0,0,43.65672,2279.399l-9.83016-11.58762a21.14953,21.14953,0,0,0-4.43615-3.94556l-9.293-6.16363a35.84253,35.84253,0,0,1-11.97928-13.35934c-5.74976-11.063-12.47221-30.38106-1.86418-47.7787.62787-1.02972,4.36686-3.16943,7.57259-5.43643a37.87258,37.87258,0,0,1,13.94729-6.05286l18.56238-3.98239a27.38184,27.38184,0,0,0,21.34136-24.99589c1.9239-27.05491,4.40313-72.32419.50709-84.30486-3.06984-9.44-14.41386-13.22586-20.55205-14.60867a22.353,22.353,0,0,1-8.19961-3.75858l-7.83342-5.68755a19.12568,19.12568,0,0,1-5.33133-24.70715l3.20692-5.75257A23.6637,23.6637,0,0,1,46.244,2005.37144l4.8169-.79637a22.8707,22.8707,0,0,0,18.31994-28.17887c-.93374-3.54532-2.62288-6.63777-5.46727-8.58149-6.4099-4.38021-11.37125-4.89585-19.8011-8.16329a37.10622,37.10622,0,0,1-16.60485-12.8567l-15.69551-21.65738a20.92852,20.92852,0,0,1-3.41006-16.9662l5.415-23.43549a24.92185,24.92185,0,0,1,9.189-14.26961l11.127-8.43016a6.48855,6.48855,0,0,0,.399-10.01558l-2.86762-2.556a42.96932,42.96932,0,0,1-14.09693-35.4752l.19136-2.40275c1.45868-18.31615,11.986-34.21377,29.36119-41.2815l1.43145-.29181a4.94128,4.94128,0,0,0,2.54882-1.39642h0l6.40662-6.567c5.19826-11.32276-2.9753-18.15131-10.92036-27.65253l-25.38385-30.35568,0,0a61.28352,61.28352,0,0,1-19.83932-43.86316L.03632,1603.72649a131.5115,131.5115,0,0,1,.60309-16.04327l4.0616-41.03783a95.45632,95.45632,0,0,1,18.38262-47.62933l25.78695-34.60234a72.37721,72.37721,0,0,0,13.71585-51.84022L57.99382,1374.39A24.87059,24.87059,0,0,0,46.94538,1356.561c-6.54082-4.29055-14.361-11.56253-16.13271-22.45886-2.13442-13.127,1.00224-14.55783,2.19286-23.37128a11.39,11.39,0,0,1,7.81837-9.39823h0a30.54916,30.54916,0,0,0,20.86426-24.28727l3.5247-21.22591a22.864,22.864,0,0,0-6.11942-19.69012l-7.99315-8.1932-8.55983-6.58055a23.4639,23.4639,0,0,1-7.97915-25.47067l.69621-2.25984a20.01468,20.01468,0,0,1,2.59642-5.39471l3.03708-4.44727a92.31991,92.31991,0,0,0,15.82967-57.44146c-1.14653-19.50917-2.515-42.796-3.14117-53.45162a8.82543,8.82543,0,0,0-5.81683-7.82468l-.30266-.1095c-18.14386-6.56418-29.98318-24.49785-29.18168-44.20312L19.41672,992.766a67.7999,67.7999,0,0,1,9.88226-32.629l13.42019-21.92374A110.85623,110.85623,0,0,0,57.703,897.22024l7.13615-46.32678a22.96786,22.96786,0,0,0-10.07-22.78031l-7.93993-5.1402L33.544,816.86844a32.6149,32.6149,0,0,1-18.75484-27.95351l-1.41846-26.17134a16.92636,16.92636,0,0,1,11.48888-17.08044l4.69023-1.5297a26.46465,26.46465,0,0,0,11.33457-7.339l7.29344-7.99157A49.98847,49.98847,0,0,0,58.994,680.88141l-6.02-20.13571a192.20467,192.20467,0,0,1-7.60445-41.99815l-4.37891-64.33519a70.56129,70.56129,0,0,1,.83132-16.59471l1.363-8.03324a23.06941,23.06941,0,0,1,8.519-14.35328l2.04512-1.59319A32.18731,32.18731,0,0,0,64.382,478.553l-6.64515-20.43438a33.321,33.321,0,0,0-12.3596-16.89193l-12.52414-8.88756a48.40444,48.40444,0,0,1-20.19254-39.5034v-2.83109c0-14.4444,7.94093-27.813,20.68806-33.97062,11.612-5.60929,25.76-17.37511,35.90379-42.00124,20.28765-49.25228,2.13554-77.70915,1.06777-80.99263-.33766-1.03833-4.27108-19.70091-41.64306-54.72475C-29.63825,123.66408,80.9979,75.43288,80.9979,75.43288S275.41517-22.88559,498.00011,29.70412a452.75322,452.75322,0,0,0,70.27678,11.05874c70.68579,5.29333,212.77144,17.9789,212.77047,34.4249l3.81115,3.92986a25.57314,25.57314,0,0,1,6.1124,10.5722c2.35252,7.94837,8.004,22.34834,19.79851,31.46972,1.55131,1.19973,9.85611,4.10935,17.88632,8.57458a36.94869,36.94869,0,0,1,18.70037,33.30123l-.23563,9.2325a7.70313,7.70313,0,0,1-9.76281,7.38774l-2.87011-.84557a17.93149,17.93149,0,0,0-22.26274,12.79092l-6.253,22.782c-2.32648,8.47626,3.74632,16.93881,12.28763,17.11855a19.87747,19.87747,0,0,1,3.125.20919c17.07234,4.401,9.44851,27.5433,15.421,47.58571a54.04666,54.04666,0,0,1-3.55478,39.23074l-18.40186,37.2473A26.50008,26.50008,0,0,0,813.344,359.512l-12.17655,38.45223a34.22318,34.22318,0,0,0,2.021,25.63778l22.72424,45.24811a46.13636,46.13636,0,0,1,3.006,7.59771l17.57961,59.32536a38.80315,38.80315,0,0,1-3.18214,29.6889l-14.66013,26.60552a20.2048,20.2048,0,0,1-12.05414,9.71767h0a24.37022,24.37022,0,0,0-17.23453,25.19939l3.28338,48.75346a79.9303,79.9303,0,0,0,3.91709,19.90359l18.8454,56.53062a17.63662,17.63662,0,0,0,4.06,6.70366l11.78761,12.15477a9.26264,9.26264,0,0,1,.60591,12.11148l-5.31764,6.74864a14.6624,14.6624,0,0,1-8.93946,5.39608L818.91,796.8336a23.74593,23.74593,0,0,0-19.12691,20.16964l-5.24564,36.199a173.065,173.065,0,0,0,7.78428,81.61283L823.50745,995.718l21.4125,61.82252a100.62691,100.62691,0,0,1,1.57758,60.77444l-1.89667,6.56572a67.4301,67.4301,0,0,1-13.67278,25.31944l-23.07587,26.769a69.77944,69.77944,0,0,0-16.64532,49.61464l3.829,65.14617a21.94726,21.94726,0,0,0,11.867,18.49439,33.56118,33.56118,0,0,1,16.60454,17.14726c6.369,15.32393,10.878,27.86373,19.16805,50.68282a144.30738,144.30738,0,0,1,7.95273,63.36152c-2.85938,29.08989-8.46175,69.00937-18.62877,87.35585a38.53758,38.53758,0,0,1-8.7545,10.751,45.62331,45.62331,0,0,0-16.7644,37.18208l1.49675,33.4399a43.75322,43.75322,0,0,0,10.192,26.24128l9.77245,11.58837a21.06671,21.06671,0,0,0,4.4101,3.94582l9.23846,6.164a35.77294,35.77294,0,0,1,11.909,13.36022c5.716,11.06368,12.399,30.383,1.85323,47.7818-.62418,1.02979-4.34123,3.16963-7.52813,5.43678a37.53638,37.53638,0,0,1-13.86541,6.05326l-18.4534,3.98265a27.3353,27.3353,0,0,0-21.21607,24.99752c-1.91261,27.05667-4.37729,72.3289-.50412,84.31034,3.05182,9.44064,14.32925,13.22672,20.43139,14.60963a22.16045,22.16045,0,0,1,8.15148,3.75882l7.78743,5.68792a19.2,19.2,0,0,1,5.3,24.70876l-3.18809,5.75294a23.53034,23.53034,0,0,1-16.67039,11.90655l-4.78863.79642a22.86935,22.86935,0,0,0-18.21238,28.18071c.92826,3.54555,2.60748,6.6382,5.43517,8.582,6.37227,4.38049,11.30449,4.89617,19.68485,8.16381a36.91871,36.91871,0,0,1,16.50737,12.85755l15.60337,21.65878a21.03,21.03,0,0,1,3.39,16.96731l-5.38319,23.437a24.93814,24.93814,0,0,1-9.135,14.27054l-11.04677,8.41933a6.51854,6.51854,0,0,0-.40035,10.03771l2.83953,2.54607a43.10436,43.10436,0,0,1,14.01417,35.47751l-.19023,2.40291c-1.45013,18.31734-11.91568,34.216-29.18882,41.28419l-1.423.29182a4.90412,4.90412,0,0,0-2.53385,1.39651h0l-6.369,6.56742c-5.16774,11.3235,2.95783,18.15249,10.85624,27.65433l25.23483,30.35766,0,0a61.44781,61.44781,0,0,1,19.72285,43.866l1.31933,56.45773a132.26362,132.26362,0,0,1-.59942,16.04016l-4.03794,41.04235a95.796,95.796,0,0,1-18.27469,47.63244l-25.63556,34.60459a72.70269,72.70269,0,0,0-13.63533,51.8436l4.56565,38.186A24.89115,24.89115,0,0,0,814.9,2559.28415c6.50241,4.29082,14.27668,11.56328,16.038,22.46031,2.12189,13.12789-.99635,14.55878-2.18,23.3728a11.37349,11.37349,0,0,1-7.77248,9.39884h0a30.49741,30.49741,0,0,0-20.74177,24.28885l-3.504,21.22729a22.9539,22.9539,0,0,0,6.0835,19.6914l7.94622,8.19374,8.50958,6.581a23.54756,23.54756,0,0,1,7.9323,25.47233l-.69213,2.26a20.06735,20.06735,0,0,1-2.58117,5.39506l-3.01925,4.44756a92.7354,92.7354,0,0,0-15.73674,57.4452c1.14006,19.51495,2.50091,42.80953,3.12316,53.46249a8.89292,8.89292,0,0,0,5.84277,7.83983l.24037.08748c18.03733,6.5646,29.80714,24.49945,29.01035,44.206l-1.13166,27.98846a68.09646,68.09646,0,0,1-9.82423,32.63109L819.10136,2977.659a111.28215,111.28215,0,0,0-14.89587,40.99575l-7.09426,46.3298a23.02448,23.02448,0,0,0,10.01089,22.7818l7.89331,5.14053,13.20727,6.10491a32.61992,32.61992,0,0,1,18.64473,27.95533l1.41013,26.173a16.92618,16.92618,0,0,1-11.42142,17.08156l-4.66271,1.52979a26.29415,26.29415,0,0,0-11.268,7.33945l-7.25063,7.9921a50.21206,50.21206,0,0,0-10.75272,47.92461l5.98461,20.137a193.24945,193.24945,0,0,1,7.5598,42.00089l4.3532,64.33938a70.98251,70.98251,0,0,1-.82663,16.59693l-1.35478,8.03262a23.09665,23.09665,0,0,1-8.469,14.35421l-2.03312,1.5933a32.30474,32.30474,0,0,0-10.57042,35.28722l6.60613,20.43572a33.31153,33.31153,0,0,0,12.28705,16.893l12.45061,8.88815a48.49832,48.49832,0,0,1,20.074,39.506v2.83128c0,14.44534-7.89432,27.81482-20.56661,33.97283-11.54383,5.60965-25.60874,17.37624-35.693,42.004-20.16854,49.25548-2.123,77.71421-1.0615,80.9979.33568,1.0384,4.246,19.7022,41.39858,54.72832,57.973,54.65489-52.0136,102.88922-52.0136,102.88922s-159.808,76.61963-350.26249,78.80876S80.9979,3840.49563,80.9979,3840.49563Z" style="fill:#207770"/><path d="M80.9979,3826.26627l-3.83366-3.9296a25.53673,25.53673,0,0,1-6.1485-10.57152c-2.36641-7.94785-8.0513-22.34688-19.91542-31.46767-1.56048-1.19965-9.91432-4.10908-17.992-8.574a36.90228,36.90228,0,0,1-18.8108-33.29906l.237-9.2319a7.73987,7.73987,0,0,1,9.82047-7.38726l2.88706.84552a18.04929,18.04929,0,0,0,22.39421-12.79009l6.28991-22.78057c2.34021-8.47571-3.76844-16.93771-12.3602-17.11744a20.11278,20.11278,0,0,1-3.14342-.20917c-17.17316-4.40075-9.50431-27.54151-15.51209-47.58261a53.752,53.752,0,0,1,3.57578-39.22819l18.51052-37.24488a26.41325,26.41325,0,0,0,1.5141-3.73843L60.759,3503.51086a34.03629,34.03629,0,0,0-2.033-25.6361l-22.86543-45.259a45.81565,45.81565,0,0,1-3.0132-7.57136l-17.687-59.33352a38.59556,38.59556,0,0,1,3.20093-29.687L33.108,3309.42012a20.30087,20.30087,0,0,1,12.12532-9.717h0a24.375,24.375,0,0,0,17.33631-25.19775L59.2669,3225.755a79.50755,79.50755,0,0,0-3.94023-19.9023L36.37,3149.3258a17.61683,17.61683,0,0,0-4.084-6.70322l-11.85722-12.154a9.22087,9.22087,0,0,1-.60949-12.11069l5.349-6.7482a14.76425,14.76425,0,0,1,8.99226-5.39573l8.7511-1.54657a23.80647,23.80647,0,0,0,19.23986-20.16833l5.27663-36.19661a172.08342,172.08342,0,0,0-7.83026-81.60752l-21.31082-60.899-21.539-61.81849a100.05234,100.05234,0,0,1-1.5869-60.77049l1.90787-6.56529a67.303,67.303,0,0,1,13.75353-25.3178l23.21215-26.76724a69.51138,69.51138,0,0,0,16.74361-49.61141l-3.8516-65.14193a21.93771,21.93771,0,0,0-11.93711-18.49318A33.65649,33.65649,0,0,1,38.28707,2574.164c-6.40663-15.32293-10.94221-27.86192-19.28126-50.67952a143.50217,143.50217,0,0,1-7.99969-63.3574c2.87627-29.088,8.51172-69.00487,18.73878-87.35016a38.57136,38.57136,0,0,1,8.8062-10.75033,45.50639,45.50639,0,0,0,16.8634-37.17966l-1.50559-33.43773a43.60351,43.60351,0,0,0-10.25219-26.23956L33.82656,2253.582a21.14953,21.14953,0,0,0-4.43615-3.94556l-9.293-6.16363A35.84253,35.84253,0,0,1,8.11812,2230.1135c-5.74976-11.063-12.47221-30.38106-1.86418-47.7787.62787-1.02972,4.36686-3.16943,7.57259-5.43643a37.87277,37.87277,0,0,1,13.94729-6.05287l18.56238-3.98238a27.38184,27.38184,0,0,0,21.34136-24.99589c1.9239-27.05491,4.40313-72.3242.50709-84.30486-3.06984-9.44-14.41386-13.22586-20.55205-14.60867a22.353,22.353,0,0,1-8.19961-3.75858l-7.83342-5.68755a19.12568,19.12568,0,0,1-5.33133-24.70715l3.20692-5.75257A23.6637,23.6637,0,0,1,46.244,1991.14208l4.8169-.79637a22.8707,22.8707,0,0,0,18.31994-28.17887c-.93374-3.54533-2.62288-6.63777-5.46727-8.58149-6.4099-4.38022-11.37125-4.89586-19.8011-8.16329a37.10629,37.10629,0,0,1-16.60485-12.8567L11.81211,1910.908a20.92852,20.92852,0,0,1-3.41006-16.9662l5.415-23.43549a24.92185,24.92185,0,0,1,9.189-14.26961l11.127-8.43016a6.48856,6.48856,0,0,0,.399-10.01559l-2.86762-2.556a42.96933,42.96933,0,0,1-14.09693-35.47521l.19136-2.40275c1.45868-18.31614,11.986-34.21376,29.36119-41.28149l1.43145-.29181a4.94128,4.94128,0,0,0,2.54882-1.39642h0l6.40662-6.567c5.19826-11.32276-2.9753-18.15131-10.92036-27.65253l-25.38385-30.35568,0,0a61.28354,61.28354,0,0,1-19.83932-43.86316L.03632,1589.49712a131.51142,131.51142,0,0,1,.60309-16.04326L4.701,1532.416a95.45632,95.45632,0,0,1,18.38262-47.62933l25.78695-34.60234a72.37721,72.37721,0,0,0,13.71585-51.84022l-4.59261-38.18348a24.87059,24.87059,0,0,0-11.04844-17.82905c-6.54082-4.29055-14.361-11.56253-16.13271-22.45886-2.13442-13.127,1.00224-14.55783,2.19286-23.37128a11.39,11.39,0,0,1,7.81837-9.39823h0A30.54915,30.54915,0,0,0,61.68819,1262.816l3.5247-21.22591a22.864,22.864,0,0,0-6.11942-19.69012l-7.99315-8.1932-8.55983-6.58055a23.4639,23.4639,0,0,1-7.97915-25.47067l.69621-2.25985a20.01476,20.01476,0,0,1,2.59642-5.3947l3.03708-4.44727a92.31993,92.31993,0,0,0,15.82967-57.44146c-1.14653-19.50917-2.515-42.796-3.14117-53.45162a8.82545,8.82545,0,0,0-5.81683-7.82469l-.30266-.1095c-18.14386-6.56417-29.98318-24.49785-29.18168-44.20311l1.13834-27.98664a67.7999,67.7999,0,0,1,9.88226-32.629L42.71917,923.984A110.85623,110.85623,0,0,0,57.703,882.99088l7.13615-46.32678a22.96786,22.96786,0,0,0-10.07-22.78031l-7.93993-5.1402L33.544,802.63908a32.61491,32.61491,0,0,1-18.75484-27.95351l-1.41846-26.17134a16.92635,16.92635,0,0,1,11.48888-17.08044l4.69023-1.5297a26.46475,26.46475,0,0,0,11.33457-7.339l7.29344-7.99158A49.98845,49.98845,0,0,0,58.994,666.65205l-6.02-20.13571a192.20467,192.20467,0,0,1-7.60445-41.99815L40.99071,540.183a70.56129,70.56129,0,0,1,.83132-16.59471l1.363-8.03324a23.06941,23.06941,0,0,1,8.519-14.35328l2.04512-1.59319A32.18732,32.18732,0,0,0,64.382,464.32365l-6.64515-20.43439a33.32094,33.32094,0,0,0-12.3596-16.89192l-12.52414-8.88756a48.40446,48.40446,0,0,1-20.19254-39.5034v-2.83109c0-14.4444,7.94093-27.813,20.68806-33.97062,11.612-5.60929,25.76-17.37511,35.90379-42.00125,20.28765-49.25227,2.13554-77.70914,1.06777-80.99262-.33766-1.03833-4.27108-19.70091-41.64306-54.72475C-29.63825,109.43471,80.9979,61.20352,80.9979,61.20352S275.41517-37.11495,498.00011,15.47475A452.75324,452.75324,0,0,0,568.27689,26.5335c70.68579,5.29333,212.77144,17.9789,212.77047,34.4249l3.81115,3.92986a25.57314,25.57314,0,0,1,6.1124,10.5722c2.35252,7.94837,8.004,22.34834,19.79851,31.46972,1.55131,1.19973,9.85611,4.10935,17.88632,8.57458A36.94869,36.94869,0,0,1,847.35611,148.806l-.23563,9.23251a7.70313,7.70313,0,0,1-9.76281,7.38774l-2.87011-.84558a17.93151,17.93151,0,0,0-22.26274,12.79093l-6.253,22.782c-2.32648,8.47626,3.74632,16.93881,12.28763,17.11855a19.87747,19.87747,0,0,1,3.125.20919c17.07234,4.401,9.44851,27.5433,15.421,47.58571a54.04666,54.04666,0,0,1-3.55478,39.23074l-18.40186,37.2473a26.50008,26.50008,0,0,0-1.50483,3.73747l-12.17655,38.45223a34.22315,34.22315,0,0,0,2.021,25.63777l22.72424,45.24812a46.13636,46.13636,0,0,1,3.006,7.59771l17.57961,59.32536a38.80315,38.80315,0,0,1-3.18214,29.6889L828.65609,577.8382a20.2048,20.2048,0,0,1-12.05414,9.71767h0a24.37021,24.37021,0,0,0-17.23453,25.19939l3.28338,48.75345a79.93029,79.93029,0,0,0,3.91709,19.9036l18.8454,56.53062a17.63662,17.63662,0,0,0,4.06,6.70366l11.78761,12.15477a9.26264,9.26264,0,0,1,.60591,12.11148l-5.31764,6.74864a14.6624,14.6624,0,0,1-8.93946,5.39608L818.91,782.60424a23.74592,23.74592,0,0,0-19.12691,20.16964l-5.24564,36.199a173.065,173.065,0,0,0,7.78428,81.61283l21.18572,60.90293,21.4125,61.82251a100.62694,100.62694,0,0,1,1.57758,60.77445l-1.89667,6.56572a67.4301,67.4301,0,0,1-13.67278,25.31944l-23.07587,26.769a69.77944,69.77944,0,0,0-16.64532,49.61464l3.829,65.14617a21.94724,21.94724,0,0,0,11.867,18.49438,33.56121,33.56121,0,0,1,16.60454,17.14727c6.369,15.32393,10.878,27.86373,19.16805,50.68282a144.30738,144.30738,0,0,1,7.95273,63.36152c-2.85938,29.08989-8.46175,69.00937-18.62877,87.35585a38.53758,38.53758,0,0,1-8.7545,10.751,45.62329,45.62329,0,0,0-16.7644,37.18208l1.49675,33.4399a43.75317,43.75317,0,0,0,10.192,26.24127l9.77245,11.58838a21.06671,21.06671,0,0,0,4.4101,3.94582l9.23846,6.164a35.773,35.773,0,0,1,11.909,13.36021c5.716,11.06368,12.399,30.383,1.85323,47.78181-.62418,1.02979-4.34123,3.16963-7.52813,5.43678a37.53654,37.53654,0,0,1-13.86541,6.05326l-18.4534,3.98265a27.33529,27.33529,0,0,0-21.21607,24.99752c-1.91261,27.05667-4.37729,72.3289-.50412,84.31034,3.05182,9.44064,14.32925,13.22672,20.43139,14.60963a22.16029,22.16029,0,0,1,8.15148,3.75882l7.78743,5.68792a19.2,19.2,0,0,1,5.3,24.70876l-3.18809,5.75294a23.53034,23.53034,0,0,1-16.67039,11.90655l-4.78863.79642a22.86935,22.86935,0,0,0-18.21238,28.18071c.92826,3.54555,2.60748,6.6382,5.43517,8.582,6.37227,4.3805,11.30449,4.89618,19.68485,8.16382a36.91871,36.91871,0,0,1,16.50737,12.85755l15.60337,21.65878a21.03,21.03,0,0,1,3.39,16.96731l-5.38319,23.437a24.93814,24.93814,0,0,1-9.135,14.27054l-11.04677,8.41933a6.51854,6.51854,0,0,0-.40035,10.03771l2.83953,2.54607a43.10436,43.10436,0,0,1,14.01417,35.47751l-.19023,2.40291c-1.45013,18.31733-11.91568,34.216-29.18882,41.28418l-1.423.29183a4.90412,4.90412,0,0,0-2.53385,1.39651h0l-6.369,6.56742c-5.16774,11.3235,2.95783,18.15249,10.85624,27.65433l25.23483,30.35766,0,0a61.44781,61.44781,0,0,1,19.72285,43.866l1.31933,56.45773a132.2637,132.2637,0,0,1-.59942,16.04016l-4.03794,41.04235a95.796,95.796,0,0,1-18.27469,47.63244L812.98607,2437.195a72.70267,72.70267,0,0,0-13.63533,51.8436l4.56565,38.186A24.89113,24.89113,0,0,0,814.9,2545.05478c6.50241,4.29083,14.27668,11.56328,16.038,22.46032,2.12189,13.12788-.99635,14.55878-2.18,23.3728a11.37349,11.37349,0,0,1-7.77248,9.39884h0a30.49741,30.49741,0,0,0-20.74177,24.28885l-3.504,21.22729a22.9539,22.9539,0,0,0,6.0835,19.6914l7.94622,8.19374,8.50958,6.581a23.54755,23.54755,0,0,1,7.9323,25.47233l-.69213,2.26a20.06735,20.06735,0,0,1-2.58117,5.39506l-3.01925,4.44756a92.7354,92.7354,0,0,0-15.73674,57.4452c1.14006,19.515,2.50091,42.80953,3.12316,53.46249a8.89292,8.89292,0,0,0,5.84277,7.83983l.24037.08748c18.03733,6.5646,29.80714,24.49945,29.01035,44.206L842.267,2908.8734a68.09646,68.09646,0,0,1-9.82423,32.63109l-13.34141,21.92517a111.28215,111.28215,0,0,0-14.89587,40.99575l-7.09426,46.3298a23.02448,23.02448,0,0,0,10.01089,22.7818l7.89331,5.14053,13.20727,6.10491a32.61992,32.61992,0,0,1,18.64473,27.95533l1.41013,26.173a16.92616,16.92616,0,0,1-11.42142,17.08155l-4.66271,1.5298a26.29415,26.29415,0,0,0-11.268,7.33945l-7.25063,7.9921a50.21206,50.21206,0,0,0-10.75272,47.92461l5.98461,20.137a193.24945,193.24945,0,0,1,7.5598,42.00089l4.3532,64.33938a70.98251,70.98251,0,0,1-.82663,16.59693l-1.35478,8.03262a23.09665,23.09665,0,0,1-8.469,14.35421l-2.03312,1.5933a32.30474,32.30474,0,0,0-10.57042,35.28722l6.60613,20.43572a33.31153,33.31153,0,0,0,12.28705,16.893l12.45061,8.88815a48.49832,48.49832,0,0,1,20.074,39.506v2.83128c0,14.44534-7.89432,27.81482-20.56661,33.97283-11.54383,5.60965-25.60874,17.37624-35.693,42.004-20.16854,49.25548-2.123,77.7142-1.0615,80.9979.33568,1.0384,4.246,19.7022,41.39858,54.72832,57.973,54.65489-52.0136,102.88922-52.0136,102.88922s-159.808,76.61963-350.26249,78.80876S80.9979,3826.26627,80.9979,3826.26627Z" style="fill:#4db1a7"/></g></g></svg>