<svg preserveAspectRatio="none" xmlns="http://www.w3.org/2000/svg" viewBox="0 0 861.56978 3919.34367"><title>BOTTOM</title><g id="Layer_2" data-name="Layer 2"><g id="Bottom"><path d="M860.9349,2328.14014l-4.04,41.0498a95.81587,95.81587,0,0,1-18.27,47.63013l-25.64,34.59985a72.68178,72.68178,0,0,0-13.63,51.8501l4.56,38.17993a24.85846,24.85846,0,0,0,10.99,17.83008c6.5,4.29,14.27,11.57007,16.03,22.46,2.12,13.13013-.99,14.56006-2.18006,23.38013a11.36424,11.36424,0,0,1-7.77,9.3999,29.796,29.796,0,0,0-13.72,9.1001,31.25118,31.25118,0,0,0-7.02,15.17993l-3.51,21.23a22.98982,22.98982,0,0,0,6.09,19.68994l7.94,8.19995,8.51,6.58008a23.55859,23.55859,0,0,1,7.94,25.47l-.7,2.26a20.03053,20.03053,0,0,1-2.58,5.3999l-3.02,4.44019a92.73315,92.73315,0,0,0-15.73,57.44995c1.13995,19.51,2.5,42.81006,3.12,53.46a8.88476,8.88476,0,0,0,5.84,7.84009l.24.08984c18.04,6.56006,29.81,24.5,29.01,44.2l-1.13,27.99024a68.08373,68.08373,0,0,1-9.82,32.62988l-13.34,21.92993a111.27162,111.27162,0,0,0-14.9,40.99l-7.09,46.33008a23.027,23.027,0,0,0,10.01,22.79l7.88995,5.13989,13.21,6.1001a32.62158,32.62158,0,0,1,18.64,27.96l1.41,26.17017a16.9173,16.9173,0,0,1-11.42,17.07983l-4.66,1.53a26.33732,26.33732,0,0,0-11.27,7.33984l-7.25,7.99024a50.20052,50.20052,0,0,0-10.75,47.92993l5.98,20.13013a192.95347,192.95347,0,0,1,7.56,42.00976l4.35,64.33008a70.97507,70.97507,0,0,1-.82,16.6001l-1.36,8.02978a23.0783,23.0783,0,0,1-8.47,14.36011l-2.03,1.59009a32.3278,32.3278,0,0,0-10.57,35.29l6.61,20.42993a33.24909,33.24909,0,0,0,12.28,16.8999l12.45,8.89014a48.46092,48.46092,0,0,1,20.08,39.5v2.82983c0,14.4502-7.9,27.82007-20.57,33.98-11.54,5.61011-25.61,17.37012-35.69,42-20.17,49.26026-2.12,77.71-1.06,81,.33,1.04,4.24,19.7002,41.4,54.73a60.23808,60.23808,0,0,1,12.62,16.16016l4.08-.82007v14.28c4.09,41.34009-68.72,73.27-68.72,73.27s-159.81,76.62012-350.26,78.8c-190.45,2.18994-349.79-78.8-349.79-78.8l-3.83-3.92993a25.64483,25.64483,0,0,1-6.15-10.58008c-2.37-7.93994-8.05-22.34009-19.91-31.46-1.57-1.19995-9.92-4.11011-18-8.58008a36.91321,36.91321,0,0,1-18.81-33.30005l.24-9.23a7.74474,7.74474,0,0,1,9.82-7.38989l2.89.84985a18.04611,18.04611,0,0,0,22.39-12.79l6.29-22.77978c2.34-8.48-3.77-16.93994-12.36-17.12012a19.91486,19.91486,0,0,1-3.14-.21c-17.18-4.3999-9.51-27.54-15.51-47.58008a53.70507,53.70507,0,0,1,3.57-39.23l18.51-37.24a26.87753,26.87753,0,0,0,1.52-3.74l12.24-38.45a34.01143,34.01143,0,0,0-2.03-25.63989l-22.86-45.25a45.891,45.891,0,0,1-3.02-7.58008l-17.68-59.33008a38.71287,38.71287,0,0,1-1.61-11.26V3354.28l2.49.97a38.32528,38.32528,0,0,1,2.32-5l14.74-26.6001a20.34251,20.34251,0,0,1,12.13-9.72,24.30181,24.30181,0,0,0,17.39-23.48c0-.57007-.02-1.13989-.06-1.72l-3.3-48.75a79.35811,79.35811,0,0,0-3.94-19.8999l-18.94995-56.52a17.687,17.687,0,0,0-4.09-6.71L20.42489,3144.7a9.1841,9.1841,0,0,1-2.21-8.99v-14.23l7.29,3.94995a14.80051,14.80051,0,0,1,8.66-4.99l8.75-1.54a23.82749,23.82749,0,0,0,19.24-20.16992l5.27-36.2a172.13435,172.13435,0,0,0-7.83-81.61011l-21.31-60.88989-21.54-61.82007a100.09232,100.09232,0,0,1-1.58-60.77l1.9-6.56982a67.39037,67.39037,0,0,1,13.76-25.32007l23.21-26.76a69.50177,69.50177,0,0,0,16.74-49.62012l-3.85-65.13989a21.94309,21.94309,0,0,0-11.94-18.49,33.6488,33.6488,0,0,1-16.7-17.1499c-6.4-15.32007-10.94-27.86011-19.28-50.68018a143.474,143.474,0,0,1-7.99994-63.3501c2.88-29.08984,8.51-69.00976,18.74-87.34985a38.70248,38.70248,0,0,1,8.81-10.75,45.53109,45.53109,0,0,0,16.86-37.17993l-1.51-33.43994a43.52254,43.52254,0,0,0-10.25-26.24024l-9.83-11.58984a20.99981,20.99981,0,0,0-4.43-3.93994l-9.3-6.17017a35.87,35.87,0,0,1-11.98-13.36011c-5.75-11.05981-12.47-30.37988-1.86-47.77978.63-1.03,4.37-3.16992,7.57-5.43018a38.0266,38.0266,0,0,1,13.95-6.05981l18.56-3.98023a27.362,27.362,0,0,0,21.34-24.98974c1.93-27.06006,4.41-72.33008.51-84.31006-3.07-9.43994-14.41-13.22-20.55-14.61011a22.09718,22.09718,0,0,1-8.2-3.76l-7.84-5.67993a19.13939,19.13939,0,0,1-5.33-24.71l3.21-5.75a23.66,23.66,0,0,1,16.77-11.90991l4.82-.79a22.87962,22.87962,0,0,0,18.32-28.18018c-.94-3.54992-2.63-6.63989-5.47-8.58984-6.41-4.38013-11.37-4.89014-19.8-8.16016a37.03455,37.03455,0,0,1-16.61-12.85986L11.8149,1925.14a20.77957,20.77957,0,0,1-3.94-12.71008V1898.2l2.84-.02,3.1-13.43994a24.91267,24.91267,0,0,1,9.18994-14.27l11.13-8.42993a6.49213,6.49213,0,0,0,.4-10.02l-2.87-2.56006a42.97228,42.97228,0,0,1-14.1-35.47l.19-2.4c1.46-18.32,11.99-34.22,29.37-41.28992l1.43-.29a4.94787,4.94787,0,0,0,2.55-1.39l6.4-6.56995c5.2-11.32007-2.97-18.15015-10.92-27.65015l-25.38-30.35986a60.5159,60.5159,0,0,1-14.37-19.82007,61.84485,61.84485,0,0,1-5.47-24.04L.03487,1603.73a134.33379,134.33379,0,0,1,.6-16.05005l4.07-41.03A95.32721,95.32721,0,0,1,23.08486,1499.02l25.79-34.61011a72.36234,72.36234,0,0,0,13.71-51.83984l-4.59-38.18006a24.87426,24.87426,0,0,0-11.05-17.83c-6.54-4.29-14.36-11.56006-16.12995-22.46008-2.14-13.12,1-14.55994,2.18994-23.37a11.40317,11.40317,0,0,1,7.82-9.4,29.90949,29.90949,0,0,0,13.80005-9.1,30.999,30.999,0,0,0,7.06-15.17993l3.53-21.23a22.88829,22.88829,0,0,0-6.12-19.69007l-7.99-8.19006-8.56-6.58a23.22186,23.22186,0,0,1-8.71-14.67c-.09-.51-.16-1.02-.2-1.53V1186.27l4.2,1.98c.01-.01.02-.01.02-.02l3.04-4.45a92.333,92.333,0,0,0,15.83-57.44006c-1.15-19.51-2.52-42.78992-3.15-53.45a8.80875,8.80875,0,0,0-5.81-7.81994l-.3-.11011c-18.15-6.56995-29.99-24.5-29.19-44.21l1.14-27.98a67.82352,67.82352,0,0,1,9.88-32.63l13.42-21.93a110.65045,110.65045,0,0,0,14.99-40.99l7.13-46.33a22.94315,22.94315,0,0,0-10.07-22.78l-7.94-5.14-13.28-6.1a32.62823,32.62823,0,0,1-18.76-27.96l-1.41-26.17a16.92635,16.92635,0,0,1,11.48-17.08l4.69-1.53a26.443,26.443,0,0,0,11.34-7.34l7.29-7.99a49.98213,49.98213,0,0,0,10.82-47.92l-6.02-20.13a192.45061,192.45061,0,0,1-7.61-42l-4.37-64.34a70.38107,70.38107,0,0,1,.83-16.59l1.36005-8.04a23.05976,23.05976,0,0,1,8.52-14.35l2.04-1.59a32.18989,32.18989,0,0,0,10.64-35.29l-6.65-20.43a33.29727,33.29727,0,0,0-12.36-16.89l-12.52-8.89a48.40229,48.40229,0,0,1-20.19-39.5V390c0-14.44,7.94-27.81,20.68-33.97,11.62-5.61,25.76-17.37,35.91-42,20.29-49.25,2.13-77.71,1.07-80.99-.34-1.04-4.28-19.7-41.65-54.72-11.58-10.86005-16.5-21.47-16.93-31.49a.27641.27641,0,0,1-.01-.09l.04-3.57.18006-16.24,3.31994,2.62c14.18-31.65,65.72-54.12,65.72-54.12s194.42-98.32,417.01-45.73a451.08312,451.08312,0,0,0,70.27,11.06c70.69,5.3,212.77,17.98,212.77,34.43l3.81,3.93a25.48527,25.48527,0,0,1,6.12,10.57c2.35,7.95,8,22.35,19.79,31.47,1.56,1.2,9.86005,4.11,17.89,8.57a36.96085,36.96085,0,0,1,18.7,33.31l-.23,9.23a7.71483,7.71483,0,0,1-9.77,7.39l-2.87-.85a17.92992,17.92992,0,0,0-22.26,12.79l-6.25,22.78c-2.33,8.48,3.74,16.94,12.28,17.12a19.72663,19.72663,0,0,1,3.13.21c17.07,4.4,9.45,27.54,15.42,47.59a54.05168,54.05168,0,0,1-3.55005,39.23l-18.41,37.24a28.05483,28.05483,0,0,0-1.5,3.74l-12.18,38.45a34.292,34.292,0,0,0,2.02,25.64l22.73,45.25a46.00921,46.00921,0,0,1,3,7.6l17.58,59.31995a38.77635,38.77635,0,0,1-3.18,29.69l-14.66,26.61005a20.24414,20.24414,0,0,1-12.05,9.72,24.31234,24.31234,0,0,0-17.3,23.48q0,.855.06,1.71l3.29,48.76a79.76678,79.76678,0,0,0,3.91,19.9l18.85,56.53a17.61965,17.61965,0,0,0,4.06,6.71l5.84,6.01,8.43-2.96v16.76a9.10744,9.10744,0,0,1-1.88,4.45l-5.32,6.75a14.62672,14.62672,0,0,1-8.94,5.4l-8.69,1.54a23.7579,23.7579,0,0,0-19.13,20.17l-5.25,36.2a173.04734,173.04734,0,0,0,7.79,81.62l21.18,60.9L844.92489,1057.54a100.62445,100.62445,0,0,1,1.57,60.77l-1.89,6.56994a67.4988,67.4988,0,0,1-13.68,25.31995l-23.07,26.77a69.73437,69.73437,0,0,0-16.65,49.61l3.83,65.15a21.94138,21.94138,0,0,0,11.87,18.49,33.57451,33.57451,0,0,1,16.6,17.15c6.37006,15.33,10.88,27.87,19.17005,50.68005a144.40849,144.40849,0,0,1,7.95,63.36987c-2.86005,29.09009-8.46,69.01-18.63,87.3501a38.47684,38.47684,0,0,1-8.75,10.75,45.61783,45.61783,0,0,0-16.76,37.17993l1.49,33.44006a43.85782,43.85782,0,0,0,10.19,26.25l9.78,11.58a20.70137,20.70137,0,0,0,4.41,3.94995l9.24,6.16a35.82545,35.82545,0,0,1,11.9,13.36c5.72,11.07007,12.4,30.39,1.86,47.79-.63,1.03-4.34,3.16992-7.53,5.42993a37.50387,37.50387,0,0,1-13.87,6.06006l-18.45,3.98a27.338,27.338,0,0,0-21.22,25c-1.91,27.05005-4.37,72.33008-.5,84.31006,3.05,9.43994,14.33,13.22,20.43,14.61a21.881,21.881,0,0,1,8.15,3.76l7.79,5.68006a19.20886,19.20886,0,0,1,5.3,24.71l-3.19,5.75a23.50332,23.50332,0,0,1-16.67,11.90991l-4.79.80005a22.86672,22.86672,0,0,0-18.21,28.17993c.93,3.54,2.61,6.64014,5.44,8.58008,6.37,4.38,11.3,4.9,19.68,8.15991a37.01108,37.01108,0,0,1,16.51,12.86011l15.6,21.65991a20.98153,20.98153,0,0,1,3.39,16.97022l-5.38,23.43994a24.91852,24.91852,0,0,1-9.14,14.27l-11.04,8.40991a6.51334,6.51334,0,0,0-.4,10.04l2.84,2.55005a43.10325,43.10325,0,0,1,14.01,35.48l-.19,2.3999c-1.45,18.32007-11.92,34.22-29.19,41.28l-1.42.3a4.91865,4.91865,0,0,0-2.54,1.38989l-6.36,6.57007c-5.17,11.31982,2.95,18.1499,10.85,27.6499L840.49489,2211.78a60.53677,60.53677,0,0,1,14.28,19.82007,62.04269,62.04269,0,0,1,5.44,24.0498l1.32,56.4502A134.09974,134.09974,0,0,1,860.9349,2328.14014Z" style="fill:#207770"/><path d="M80.9979,3826.26627l-3.83366-3.9296a25.53673,25.53673,0,0,1-6.1485-10.57152c-2.36641-7.94785-8.0513-22.34688-19.91542-31.46767-1.56048-1.19965-9.91432-4.10908-17.992-8.574a36.90228,36.90228,0,0,1-18.8108-33.29906l.237-9.2319a7.73987,7.73987,0,0,1,9.82047-7.38726l2.88706.84552a18.04929,18.04929,0,0,0,22.39421-12.79009l6.28991-22.78057c2.34021-8.47571-3.76844-16.93771-12.3602-17.11744a20.11278,20.11278,0,0,1-3.14342-.20917c-17.17316-4.40075-9.50431-27.54151-15.51209-47.58261a53.752,53.752,0,0,1,3.57578-39.22819l18.51052-37.24488a26.41325,26.41325,0,0,0,1.5141-3.73843L60.759,3503.51086a34.03629,34.03629,0,0,0-2.033-25.6361l-22.86543-45.259a45.81565,45.81565,0,0,1-3.0132-7.57136l-17.687-59.33352a38.59556,38.59556,0,0,1,3.20093-29.687L33.108,3309.42012a20.30087,20.30087,0,0,1,12.12532-9.717h0a24.375,24.375,0,0,0,17.33631-25.19775L59.2669,3225.755a79.50755,79.50755,0,0,0-3.94023-19.9023L36.37,3149.3258a17.61683,17.61683,0,0,0-4.084-6.70322l-11.85722-12.154a9.22087,9.22087,0,0,1-.60949-12.11069l5.349-6.7482a14.76425,14.76425,0,0,1,8.99226-5.39573l8.7511-1.54657a23.80647,23.80647,0,0,0,19.23986-20.16833l5.27663-36.19661a172.08342,172.08342,0,0,0-7.83026-81.60752l-21.31082-60.899-21.539-61.81849a100.05234,100.05234,0,0,1-1.5869-60.77049l1.90787-6.56529a67.303,67.303,0,0,1,13.75353-25.3178l23.21215-26.76724a69.51138,69.51138,0,0,0,16.74361-49.61141l-3.8516-65.14193a21.93771,21.93771,0,0,0-11.93711-18.49318A33.65649,33.65649,0,0,1,38.28707,2574.164c-6.40663-15.32293-10.94221-27.86192-19.28126-50.67952a143.50217,143.50217,0,0,1-7.99969-63.3574c2.87627-29.088,8.51172-69.00487,18.73878-87.35016a38.57136,38.57136,0,0,1,8.8062-10.75033,45.50639,45.50639,0,0,0,16.8634-37.17966l-1.50559-33.43773a43.60351,43.60351,0,0,0-10.25219-26.23956L33.82656,2253.582a21.14953,21.14953,0,0,0-4.43615-3.94556l-9.293-6.16363A35.84253,35.84253,0,0,1,8.11812,2230.1135c-5.74976-11.063-12.47221-30.38106-1.86418-47.7787.62787-1.02972,4.36686-3.16943,7.57259-5.43643a37.87277,37.87277,0,0,1,13.94729-6.05287l18.56238-3.98238a27.38184,27.38184,0,0,0,21.34136-24.99589c1.9239-27.05491,4.40313-72.3242.50709-84.30486-3.06984-9.44-14.41386-13.22586-20.55205-14.60867a22.353,22.353,0,0,1-8.19961-3.75858l-7.83342-5.68755a19.12568,19.12568,0,0,1-5.33133-24.70715l3.20692-5.75257A23.6637,23.6637,0,0,1,46.244,1991.14208l4.8169-.79637a22.8707,22.8707,0,0,0,18.31994-28.17887c-.93374-3.54533-2.62288-6.63777-5.46727-8.58149-6.4099-4.38022-11.37125-4.89586-19.8011-8.16329a37.10629,37.10629,0,0,1-16.60485-12.8567L11.81211,1910.908a20.92852,20.92852,0,0,1-3.41006-16.9662l5.415-23.43549a24.92185,24.92185,0,0,1,9.189-14.26961l11.127-8.43016a6.48856,6.48856,0,0,0,.399-10.01559l-2.86762-2.556a42.96933,42.96933,0,0,1-14.09693-35.47521l.19136-2.40275c1.45868-18.31614,11.986-34.21376,29.36119-41.28149l1.43145-.29181a4.94128,4.94128,0,0,0,2.54882-1.39642h0l6.40662-6.567c5.19826-11.32276-2.9753-18.15131-10.92036-27.65253l-25.38385-30.35568,0,0a61.28354,61.28354,0,0,1-19.83932-43.86316L.03632,1589.49712a131.51142,131.51142,0,0,1,.60309-16.04326L4.701,1532.416a95.45632,95.45632,0,0,1,18.38262-47.62933l25.78695-34.60234a72.37721,72.37721,0,0,0,13.71585-51.84022l-4.59261-38.18348a24.87059,24.87059,0,0,0-11.04844-17.82905c-6.54082-4.29055-14.361-11.56253-16.13271-22.45886-2.13442-13.127,1.00224-14.55783,2.19286-23.37128a11.39,11.39,0,0,1,7.81837-9.39823h0A30.54915,30.54915,0,0,0,61.68819,1262.816l3.5247-21.22591a22.864,22.864,0,0,0-6.11942-19.69012l-7.99315-8.1932-8.55983-6.58055a23.4639,23.4639,0,0,1-7.97915-25.47067l.69621-2.25985a20.01476,20.01476,0,0,1,2.59642-5.3947l3.03708-4.44727a92.31993,92.31993,0,0,0,15.82967-57.44146c-1.14653-19.50917-2.515-42.796-3.14117-53.45162a8.82545,8.82545,0,0,0-5.81683-7.82469l-.30266-.1095c-18.14386-6.56417-29.98318-24.49785-29.18168-44.20311l1.13834-27.98664a67.7999,67.7999,0,0,1,9.88226-32.629L42.71917,923.984A110.85623,110.85623,0,0,0,57.703,882.99088l7.13615-46.32678a22.96786,22.96786,0,0,0-10.07-22.78031l-7.93993-5.1402L33.544,802.63908a32.61491,32.61491,0,0,1-18.75484-27.95351l-1.41846-26.17134a16.92635,16.92635,0,0,1,11.48888-17.08044l4.69023-1.5297a26.46475,26.46475,0,0,0,11.33457-7.339l7.29344-7.99158A49.98845,49.98845,0,0,0,58.994,666.65205l-6.02-20.13571a192.20467,192.20467,0,0,1-7.60445-41.99815L40.99071,540.183a70.56129,70.56129,0,0,1,.83132-16.59471l1.363-8.03324a23.06941,23.06941,0,0,1,8.519-14.35328l2.04512-1.59319A32.18732,32.18732,0,0,0,64.382,464.32365l-6.64515-20.43439a33.32094,33.32094,0,0,0-12.3596-16.89192l-12.52414-8.88756a48.40446,48.40446,0,0,1-20.19254-39.5034v-2.83109c0-14.4444,7.94093-27.813,20.68806-33.97062,11.612-5.60929,25.76-17.37511,35.90379-42.00125,20.28765-49.25227,2.13554-77.70914,1.06777-80.99262-.33766-1.03833-4.27108-19.70091-41.64306-54.72475C-29.63825,109.43471,80.9979,61.20352,80.9979,61.20352S275.41517-37.11495,498.00011,15.47475A452.75324,452.75324,0,0,0,568.27689,26.5335c70.68579,5.29333,212.77144,17.9789,212.77047,34.4249l3.81115,3.92986a25.57314,25.57314,0,0,1,6.1124,10.5722c2.35252,7.94837,8.004,22.34834,19.79851,31.46972,1.55131,1.19973,9.85611,4.10935,17.88632,8.57458A36.94869,36.94869,0,0,1,847.35611,148.806l-.23563,9.23251a7.70313,7.70313,0,0,1-9.76281,7.38774l-2.87011-.84558a17.93151,17.93151,0,0,0-22.26274,12.79093l-6.253,22.782c-2.32648,8.47626,3.74632,16.93881,12.28763,17.11855a19.87747,19.87747,0,0,1,3.125.20919c17.07234,4.401,9.44851,27.5433,15.421,47.58571a54.04666,54.04666,0,0,1-3.55478,39.23074l-18.40186,37.2473a26.50008,26.50008,0,0,0-1.50483,3.73747l-12.17655,38.45223a34.22315,34.22315,0,0,0,2.021,25.63777l22.72424,45.24812a46.13636,46.13636,0,0,1,3.006,7.59771l17.57961,59.32536a38.80315,38.80315,0,0,1-3.18214,29.6889L828.65609,577.8382a20.2048,20.2048,0,0,1-12.05414,9.71767h0a24.37021,24.37021,0,0,0-17.23453,25.19939l3.28338,48.75345a79.93029,79.93029,0,0,0,3.91709,19.9036l18.8454,56.53062a17.63662,17.63662,0,0,0,4.06,6.70366l11.78761,12.15477a9.26264,9.26264,0,0,1,.60591,12.11148l-5.31764,6.74864a14.6624,14.6624,0,0,1-8.93946,5.39608L818.91,782.60424a23.74592,23.74592,0,0,0-19.12691,20.16964l-5.24564,36.199a173.065,173.065,0,0,0,7.78428,81.61283l21.18572,60.90293,21.4125,61.82251a100.62694,100.62694,0,0,1,1.57758,60.77445l-1.89667,6.56572a67.4301,67.4301,0,0,1-13.67278,25.31944l-23.07587,26.769a69.77944,69.77944,0,0,0-16.64532,49.61464l3.829,65.14617a21.94724,21.94724,0,0,0,11.867,18.49438,33.56121,33.56121,0,0,1,16.60454,17.14727c6.369,15.32393,10.878,27.86373,19.16805,50.68282a144.30738,144.30738,0,0,1,7.95273,63.36152c-2.85938,29.08989-8.46175,69.00937-18.62877,87.35585a38.53758,38.53758,0,0,1-8.7545,10.751,45.62329,45.62329,0,0,0-16.7644,37.18208l1.49675,33.4399a43.75317,43.75317,0,0,0,10.192,26.24127l9.77245,11.58838a21.06671,21.06671,0,0,0,4.4101,3.94582l9.23846,6.164a35.773,35.773,0,0,1,11.909,13.36021c5.716,11.06368,12.399,30.383,1.85323,47.78181-.62418,1.02979-4.34123,3.16963-7.52813,5.43678a37.53654,37.53654,0,0,1-13.86541,6.05326l-18.4534,3.98265a27.33529,27.33529,0,0,0-21.21607,24.99752c-1.91261,27.05667-4.37729,72.3289-.50412,84.31034,3.05182,9.44064,14.32925,13.22672,20.43139,14.60963a22.16029,22.16029,0,0,1,8.15148,3.75882l7.78743,5.68792a19.2,19.2,0,0,1,5.3,24.70876l-3.18809,5.75294a23.53034,23.53034,0,0,1-16.67039,11.90655l-4.78863.79642a22.86935,22.86935,0,0,0-18.21238,28.18071c.92826,3.54555,2.60748,6.6382,5.43517,8.582,6.37227,4.3805,11.30449,4.89618,19.68485,8.16382a36.91871,36.91871,0,0,1,16.50737,12.85755l15.60337,21.65878a21.03,21.03,0,0,1,3.39,16.96731l-5.38319,23.437a24.93814,24.93814,0,0,1-9.135,14.27054l-11.04677,8.41933a6.51854,6.51854,0,0,0-.40035,10.03771l2.83953,2.54607a43.10436,43.10436,0,0,1,14.01417,35.47751l-.19023,2.40291c-1.45013,18.31733-11.91568,34.216-29.18882,41.28418l-1.423.29183a4.90412,4.90412,0,0,0-2.53385,1.39651h0l-6.369,6.56742c-5.16774,11.3235,2.95783,18.15249,10.85624,27.65433l25.23483,30.35766,0,0a61.44781,61.44781,0,0,1,19.72285,43.866l1.31933,56.45773a132.2637,132.2637,0,0,1-.59942,16.04016l-4.03794,41.04235a95.796,95.796,0,0,1-18.27469,47.63244L812.98607,2437.195a72.70267,72.70267,0,0,0-13.63533,51.8436l4.56565,38.186A24.89113,24.89113,0,0,0,814.9,2545.05478c6.50241,4.29083,14.27668,11.56328,16.038,22.46032,2.12189,13.12788-.99635,14.55878-2.18,23.3728a11.37349,11.37349,0,0,1-7.77248,9.39884h0a30.49741,30.49741,0,0,0-20.74177,24.28885l-3.504,21.22729a22.9539,22.9539,0,0,0,6.0835,19.6914l7.94622,8.19374,8.50958,6.581a23.54755,23.54755,0,0,1,7.9323,25.47233l-.69213,2.26a20.06735,20.06735,0,0,1-2.58117,5.39506l-3.01925,4.44756a92.7354,92.7354,0,0,0-15.73674,57.4452c1.14006,19.515,2.50091,42.80953,3.12316,53.46249a8.89292,8.89292,0,0,0,5.84277,7.83983l.24037.08748c18.03733,6.5646,29.80714,24.49945,29.01035,44.206L842.267,2908.8734a68.09646,68.09646,0,0,1-9.82423,32.63109l-13.34141,21.92517a111.28215,111.28215,0,0,0-14.89587,40.99575l-7.09426,46.3298a23.02448,23.02448,0,0,0,10.01089,22.7818l7.89331,5.14053,13.20727,6.10491a32.61992,32.61992,0,0,1,18.64473,27.95533l1.41013,26.173a16.92616,16.92616,0,0,1-11.42142,17.08155l-4.66271,1.5298a26.29415,26.29415,0,0,0-11.268,7.33945l-7.25063,7.9921a50.21206,50.21206,0,0,0-10.75272,47.92461l5.98461,20.137a193.24945,193.24945,0,0,1,7.5598,42.00089l4.3532,64.33938a70.98251,70.98251,0,0,1-.82663,16.59693l-1.35478,8.03262a23.09665,23.09665,0,0,1-8.469,14.35421l-2.03312,1.5933a32.30474,32.30474,0,0,0-10.57042,35.28722l6.60613,20.43572a33.31153,33.31153,0,0,0,12.28705,16.893l12.45061,8.88815a48.49832,48.49832,0,0,1,20.074,39.506v2.83128c0,14.44534-7.89432,27.81482-20.56661,33.97283-11.54383,5.60965-25.60874,17.37624-35.693,42.004-20.16854,49.25548-2.123,77.7142-1.0615,80.9979.33568,1.0384,4.246,19.7022,41.39858,54.72832,57.973,54.65489-52.0136,102.88922-52.0136,102.88922s-159.808,76.61963-350.26249,78.80876S80.9979,3826.26627,80.9979,3826.26627Z" style="fill:#4db1a7"/></g></g></svg>