<svg preserveAspectRatio="none" xmlns="http://www.w3.org/2000/svg" viewBox="0 0 813.20969 3699.35096"><title>MIDDLE</title><g id="Layer_2" data-name="Layer 2"><g id="Middle"><path d="M812.60484,2197.46l-3.81,38.74a90.34941,90.34941,0,0,1-17.25,44.96l-24.19,32.66016a68.61617,68.61617,0,0,0-12.87,48.93994l4.31,36.04a23.52,23.52,0,0,0,10.36,16.82983c6.14,4.05,13.48,10.91016,15.14,21.2002,2,12.38989-.94,13.74-2.06,22.06006a10.7411,10.7411,0,0,1-7.33,8.86987,28.10428,28.10428,0,0,0-12.95,8.59985,29.47,29.47,0,0,0-6.63,14.32007l-3.31,20.04a21.657,21.657,0,0,0,5.75,18.59009l7.5,7.73,8.03,6.21a22.21751,22.21751,0,0,1,7.48,24.04l-.65,2.13989a18.80809,18.80809,0,0,1-2.44,5.09009l-2.85,4.2a87.53114,87.53114,0,0,0-14.85,54.22c1.08,18.41992,2.36,40.3999,2.95,50.46a8.3851,8.3851,0,0,0,5.51,7.40015l.23.07983c17.03,6.2002,28.14,23.13013,27.38,41.73l-1.07,26.41016a64.177,64.177,0,0,1-9.27,30.80005l-12.59,20.69995a104.95724,104.95724,0,0,0-14.06,38.68994l-6.7,43.73a21.7355,21.7355,0,0,0,9.45,21.5l7.44995,4.86011,12.47,5.76a30.78992,30.78992,0,0,1,17.6,26.37988l1.33,24.71a15.97275,15.97275,0,0,1-10.78,16.12012l-4.4,1.45a24.78754,24.78754,0,0,0-10.64,6.92017l-6.84,7.5498a47.35357,47.35357,0,0,0-10.15,45.23l5.65,19.01a182.44207,182.44207,0,0,1,7.13,39.64014l4.11,60.73a66.7769,66.7769,0,0,1-.78,15.65991l-1.28,7.59009a21.77082,21.77082,0,0,1-7.99,13.53979l-1.92,1.51026a30.47528,30.47528,0,0,0-9.98,33.2998l6.24,19.29a31.42636,31.42636,0,0,0,11.6,15.9502l11.75,8.38989a45.77707,45.77707,0,0,1,18.93994,37.29V3327.99c0,13.63013-7.44995,26.25-19.41,32.06006-10.89,5.30005-24.17,16.3999-33.69,39.6499-19.03,46.49-2,73.3501-1,76.44995.32.98,4.01,18.6001,39.08,51.66016,7,6.59985,11.4,13.09985,13.76,19.40991l2.16-1.16992v13.76a34.01618,34.01618,0,0,1-1.12,7.71c-8.62,33.1499-63.9,57.3999-63.9,57.3999s-150.84,72.32007-330.6,74.39014c-179.76,2.06006-330.15-74.39014-330.15-74.39014l-3.62-3.71a24.07422,24.07422,0,0,1-5.8-9.98c-2.24-7.5-7.6-21.08984-18.8-29.7-1.48-1.13013-9.36-3.88013-16.98-8.09009a34.8325,34.8325,0,0,1-17.76-31.42993l.22-8.71a7.31636,7.31636,0,0,1,9.27-6.98l2.73.8a17.04572,17.04572,0,0,0,21.14-12.07007l5.93-21.5c2.21-8-3.55-15.99-11.66-16.15991a18.22631,18.22631,0,0,1-2.97-.2002c-16.21-4.1499-8.97-25.99-14.64-44.90991a50.73039,50.73039,0,0,1,3.37-37.02l17.47-35.15991a23.93806,23.93806,0,0,0,1.43-3.53l11.56-36.29a32.13673,32.13673,0,0,0-1.91-24.19019l-21.59-42.71972a43.99235,43.99235,0,0,1-2.84-7.15015l-16.69-56a36.1392,36.1392,0,0,1-1.47-12.18994V3177.96l.19-15.79,3.23,2.11011c.34-.69995.69-1.40015,1.07-2.08008l13.92005-25.11011a19.09973,19.09973,0,0,1,11.44-9.16992,22.96074,22.96074,0,0,0,16.41-22.17993c0-.53-.01-1.07007-.05-1.61011l-3.11-46.00976a75.61742,75.61742,0,0,0-3.72-18.79l-17.9-53.3501a16.49825,16.49825,0,0,0-3.85-6.33008l-11.19-11.47a8.63041,8.63041,0,0,1-2.27-4.32983V2946.98l6.8,3.33008a13.91584,13.91584,0,0,1,8.43-5.02l8.26-1.46a22.47787,22.47787,0,0,0,18.16-19.04l4.98-34.16016a162.37359,162.37359,0,0,0-7.39-77.02978l-20.12-57.48-20.33-58.3501a94.42064,94.42064,0,0,1-1.49-57.36011l1.8-6.19995a63.47848,63.47848,0,0,1,12.98-23.88989l21.91-25.27a65.60307,65.60307,0,0,0,15.8-46.82007l-3.63-61.49a20.71652,20.71652,0,0,0-11.27-17.45,31.79442,31.79442,0,0,1-15.77-16.18994c-6.04-14.46-10.32-26.30005-18.2-47.83008a135.552,135.552,0,0,1-7.55-59.8c2.72-27.46,8.04-65.13989,17.68994-82.45a36.58633,36.58633,0,0,1,8.31006-10.1499,42.92347,42.92347,0,0,0,15.92-35.09009l-1.42-31.56006a41.12064,41.12064,0,0,0-9.68005-24.77l-9.28-10.92993a19.78688,19.78688,0,0,0-4.18-3.73l-8.77-5.82007a33.68664,33.68664,0,0,1-11.31-12.61011c-3.06-5.86987-6.38-14.2-6.94-23.27978a.48735.48735,0,0,1-.01-.12012v-5.15991a35.79416,35.79416,0,0,1,2.8-11.88013,35.32539,35.32539,0,0,1,2.38995-4.6499c.59-.97,4.12-2.99,7.15-5.12988a35.727,35.727,0,0,1,13.16-5.72022l17.52-3.76a25.828,25.828,0,0,0,20.14-23.58984c1.82-25.54,4.16-68.26.48-79.57007-2.89-8.91-13.6-12.49-19.4-13.79a21.09293,21.09293,0,0,1-7.73-3.55l-7.4-5.36987a18.04793,18.04793,0,0,1-5.03-23.32007l3.03-5.42993a22.31088,22.31088,0,0,1,15.82-11.23l4.55-.76a21.57123,21.57123,0,0,0,17.29-26.59009c-.88-3.35-2.47-6.27-5.16-8.1-6.05-4.14-10.73-4.62-18.68994-7.71009a35.00623,35.00623,0,0,1-15.67-12.12988l-14.82-20.44006a19.76436,19.76436,0,0,1-3.21-16.0199l5.11-22.12012a23.503,23.503,0,0,1,8.67-13.47l10.5-7.95a6.12749,6.12749,0,0,0,.38-9.46l-2.71-2.41016a40.577,40.577,0,0,1-13.3-33.48l.18-2.27c1.37-17.28991,11.31-32.28991,27.71-38.97l1.35-.27a4.75216,4.75216,0,0,0,2.41-1.31994l6.04-6.2c4.91-10.68005-2.8-17.13-10.3-26.1l-23.96-28.65a56.99019,56.99019,0,0,1-13.55994-18.71008,58.39134,58.39134,0,0,1-5.17-22.68994l-1.25-53.28a123.625,123.625,0,0,1,.57-15.1499l3.83-38.7301a90.23554,90.23554,0,0,1,17.35-44.96l24.34-32.66a68.29782,68.29782,0,0,0,12.95-48.92993l-4.34-36.04a23.49755,23.49755,0,0,0-10.42-16.83008c-6.18-4.03991-13.56-10.90991-15.23-21.18994a48.77369,48.77369,0,0,1-.67-6.36v-15.39l2.63.46c.04-.25.07-.51.11-.77a10.72267,10.72267,0,0,1,7.38-8.86987,28.36887,28.36887,0,0,0,13.02-8.6001,29.37915,29.37915,0,0,0,6.67-14.33l3.33-20.03a21.58536,21.58536,0,0,0-5.78-18.59l-7.54-7.73-8.08-6.21a21.98062,21.98062,0,0,1-8.48-18.66h-.01V1120.71l3.78,1.26c.09-.1499.19-.29.29-.43994l2.86-4.19006a87.105,87.105,0,0,0,14.94-54.22c-1.08-18.42-2.37-40.4-2.96-50.45008a8.35137,8.35137,0,0,0-5.49-7.38989l-.29-.1001a42.37,42.37,0,0,1-27.54-41.72l1.06994-26.42a64.05906,64.05906,0,0,1,9.33-30.8l12.67-20.69a104.80258,104.80258,0,0,0,14.14-38.69l6.74-43.73a21.69352,21.69352,0,0,0-9.50995-21.5l-7.49005-4.85-12.54-5.76a30.808,30.808,0,0,1-17.71-26.39l-1.33-24.7a15.96142,15.96142,0,0,1,10.84-16.12l4.43-1.45a24.9806,24.9806,0,0,0,10.7-6.92l6.88-7.55a47.17409,47.17409,0,0,0,10.21-45.23l-5.68-19a180.72806,180.72806,0,0,1-7.18006-39.64l-4.12994-60.73a66.23938,66.23938,0,0,1,.78-15.66l1.29-7.58a21.70192,21.70192,0,0,1,8.04-13.55l1.93-1.5a30.38681,30.38681,0,0,0,10.03-33.31l-6.27-19.29a31.49278,31.49278,0,0,0-11.66-15.94L31.00487,408.07a45.68612,45.68612,0,0,1-19.05-37.28v-2.68c0-13.63,7.49005-26.25,19.52-32.06,10.96-5.3,24.32-16.4,33.89-39.64,19.15-46.49,2.02-73.35,1.01-76.45-.32-.98-4.03-18.6-39.31-51.65-55.04-51.59,49.39-97.11,49.39-97.11s183.5-92.8,393.59-43.16a427.58114,427.58114,0,0,0,66.33,10.43c66.72,5,200.83,16.97,200.83,32.5l3.6,3.71a24.12168,24.12168,0,0,1,5.76995,9.98c2.22,7.5,7.55005,21.09,18.69,29.7,1.46,1.13,9.30005,3.88,16.88,8.09a34.88391,34.88391,0,0,1,17.65,31.43l-.22,8.72a7.27573,7.27573,0,0,1-9.22,6.97l-2.71-.8a16.92336,16.92336,0,0,0-21.01,12.08l-5.9,21.5c-2.2,8,3.53,15.99,11.59,16.16a19.74351,19.74351,0,0,1,2.95.19c16.12,4.16,8.92,26,14.56,44.92a51.0051,51.0051,0,0,1-3.36,37.03l-17.36,35.15a23.87623,23.87623,0,0,0-1.42,3.53l-11.5,36.3a32.32415,32.32415,0,0,0,1.91,24.19l21.45,42.71a44.75637,44.75637,0,0,1,2.84,7.17l15.69,52.95a14.66121,14.66121,0,0,1,2.52.35l-.13,11.77v.03l-.04,3.35v.08a36.40863,36.40863,0,0,1-4.45,15.49l-13.84,25.11a19.05488,19.05488,0,0,1-11.38,9.18,22.94163,22.94163,0,0,0-16.31995,22.18c0,.53.01,1.06.05,1.6l3.1,46.02a75.4246,75.4246,0,0,0,3.7,18.78l17.79,53.36a16.576,16.576,0,0,0,3.83,6.33l3.88,4,9.58-1.16v13.41a8.68726,8.68726,0,0,1-1.76,6.65l-5.02,6.37a13.81282,13.81282,0,0,1-8.44,5.1l-8.21,1.46a22.39663,22.39663,0,0,0-18.05005,19.03l-4.96,34.17a163.37251,163.37251,0,0,0,7.35,77.03l20,57.49,20.21,58.35a94.9533,94.9533,0,0,1,1.49,57.36011l-1.79,6.19995a63.723,63.723,0,0,1-12.91,23.9l-21.78,25.25989a65.8855,65.8855,0,0,0-15.71,46.83008l3.61,61.49a20.72055,20.72055,0,0,0,11.21,17.46,31.65969,31.65969,0,0,1,15.67,16.18006c6.01,14.47,10.27,26.29992,18.09,47.84a136.28536,136.28536,0,0,1,7.51,59.81006c-2.7,27.44995-7.99,65.13-17.59,82.44995a36.26517,36.26517,0,0,1-8.26,10.15,43.06749,43.06749,0,0,0-15.82,35.09l1.41,31.56006a41.30352,41.30352,0,0,0,9.62,24.77l9.22,10.93994a19.90344,19.90344,0,0,0,4.17,3.72l8.72,5.82007a33.91409,33.91409,0,0,1,11.24,12.61,67.6499,67.6499,0,0,1,5.03,12.61l1.94995-1.18994V1602.47a36.56629,36.56629,0,0,1-5.23,20.25c-.59.98-4.1,2.99-7.11,5.13a35.49036,35.49036,0,0,1-13.09,5.72009l-17.41,3.75989a25.79061,25.79061,0,0,0-20.03,23.59c-1.8,25.54-4.13,68.27-.48,79.58008,2.89,8.90991,13.53,12.48,19.29,13.79a20.9133,20.9133,0,0,1,7.69,3.54993l7.35,5.37a18.12007,18.12007,0,0,1,5.01,23.32007l-3.01,5.42993a22.26927,22.26927,0,0,1-15.74,11.24l-4.52.75a21.59192,21.59192,0,0,0-17.19,26.6001c.88,3.34,2.46,6.26,5.13,8.09985,6.02,4.13013,10.67,4.62012,18.58,7.70008a34.82313,34.82313,0,0,1,15.57995,12.14l14.73,20.43994a19.83556,19.83556,0,0,1,3.19995,16.02l-5.07995,22.12012a23.5765,23.5765,0,0,1-8.62,13.47l-10.43,7.93994a6.16185,6.16185,0,0,0-.38,9.48l2.68,2.4a40.68184,40.68184,0,0,1,13.23,33.49l-.18,2.27c-1.37,17.2799-11.25,32.28991-27.55,38.96008l-1.34.27978a4.51813,4.51813,0,0,0-2.39,1.32007l-6.02,6.19019c-4.87,10.68994,2.8,17.13989,10.25,26.10986l23.82,28.6499a57.04832,57.04832,0,0,1,13.48,18.71,58.53449,58.53449,0,0,1,5.13,22.69019l1.25,53.29A123.39011,123.39011,0,0,1,812.60484,2197.46Z" style="fill:#56aaa3"/><path d="M76.452,3611.49111l-3.61847-3.709a24.103,24.103,0,0,1-5.80337-9.97811c-2.23359-7.50173-7.59937-21.09251-18.79754-29.70134-1.47288-1.13231-9.3578-3.87843-16.982-8.09274A34.83087,34.83087,0,0,1,13.49572,3528.58l.22371-8.7137a7.30541,7.30541,0,0,1,9.26923-6.9726l2.725.79806a17.03616,17.03616,0,0,0,21.13719-12.07216l5.93685-21.50186a12.65005,12.65005,0,0,0-11.6664-16.1566,18.9829,18.9829,0,0,1-2.967-.19744c-16.2092-4.15372-8.97082-25.99555-14.64137-44.91171a50.73476,50.73476,0,0,1,3.37507-37.02624l17.47149-35.15426a24.93216,24.93216,0,0,0,1.42912-3.52859l11.56056-36.29033a32.12575,32.12575,0,0,0-1.91886-24.1971L33.84837,3239.9369a43.24333,43.24333,0,0,1-2.84406-7.14636l-16.69422-56.003a36.42923,36.42923,0,0,1,3.02126-28.02058l13.919-25.11047a19.16143,19.16143,0,0,1,11.44471-9.17161h0a23.00677,23.00677,0,0,0,16.36319-23.78336l-3.11738-46.01384a75.04467,75.04467,0,0,0-3.71906-18.78515l-17.89261-53.354a16.6279,16.6279,0,0,0-3.85477-6.32695l-11.19165-11.47176a8.70327,8.70327,0,0,1-.57528-11.4309l5.04878-6.36941a13.93548,13.93548,0,0,1,8.48751-5.09285l8.25989-1.45976a22.47017,22.47017,0,0,0,18.15989-19.03625l4.98044-34.16483a162.42411,162.42411,0,0,0-7.39073-77.02674l-20.11461-57.4806L15.80871,2684.34a94.43618,94.43618,0,0,1-1.49783-57.35933l1.80078-6.19677a63.52528,63.52528,0,0,1,12.98151-23.89666l21.90922-25.26475a65.60955,65.60955,0,0,0,15.80376-46.82663l-3.6354-61.4854a20.70633,20.70633,0,0,0-11.26706-17.45513,31.76722,31.76722,0,0,1-15.765-16.18371c-6.047-14.46282-10.328-26.298-18.199-47.83478a135.447,135.447,0,0,1-7.55066-59.801c2.71482-27.45524,8.03394-65.13151,17.68694-82.447a36.40665,36.40665,0,0,1,8.31189-10.14689,42.952,42.952,0,0,0,15.91683-35.09269l-1.42108-31.56082a41.15588,41.15588,0,0,0-9.67672-24.76668l-9.27837-10.93719a19.96247,19.96247,0,0,0-4.18714-3.7241L18.97,2117.5427a33.83054,33.83054,0,0,1-11.30686-12.60946c-5.427-10.442-11.77212-28.67571-1.75954-45.09679.59262-.97192,4.12175-2.99152,7.14753-5.13127a35.74689,35.74689,0,0,1,13.1644-5.71311l17.52044-3.75885a25.84483,25.84483,0,0,0,20.14343-23.59283c1.81591-25.53626,4.156-68.2645.47863-79.57267-2.89753-8.91013-13.60479-12.48347-19.39842-13.78866a21.09817,21.09817,0,0,1-7.73936-3.5476l-7.39372-5.3683a18.05211,18.05211,0,0,1-5.03206-23.32029l3.02691-5.42967a22.33537,22.33537,0,0,1,15.82757-11.23748l4.54652-.75167a21.58692,21.58692,0,0,0,17.2916-26.59714c-.88132-3.34632-2.47565-6.26518-5.16038-8.0998-6.0501-4.13434-10.733-4.621-18.68963-7.70506a35.02338,35.02338,0,0,1-15.67278-12.135l-14.8145-20.4417a19.75376,19.75376,0,0,1-3.21864-16.01386l5.111-22.12a23.523,23.523,0,0,1,8.67318-13.46863l10.50244-7.957a6.12434,6.12434,0,0,0,.37662-9.45339l-2.70666-2.41252A40.5574,40.5574,0,0,1,16.5821,1698.736l.18062-2.26788c1.37681-17.288,11.31324-32.29329,27.71309-38.96429l1.3511-.27543a4.664,4.664,0,0,0,2.40575-1.318h0l6.047-6.19837c4.90647-10.6872-2.80829-17.13245-10.30738-26.10035l-23.959-28.65176,0,0a57.84353,57.84353,0,0,1-18.7257-41.401L.035,1500.27581a124.12754,124.12754,0,0,1,.56924-15.14272l3.83361-38.73431A90.09826,90.09826,0,0,1,21.7886,1401.443l24.33948-32.66a68.31455,68.31455,0,0,0,12.946-48.93034l-4.33482-36.04017a23.47453,23.47453,0,0,0-10.42828-16.82827c-6.17367-4.04971-13.55488-10.91351-15.22714-21.1982-2.01461-12.39019.946-13.74068,2.06976-22.05941a10.75069,10.75069,0,0,1,7.37952-8.87069h0a28.83436,28.83436,0,0,0,19.69311-22.924l3.32686-20.03446a21.58063,21.58063,0,0,0-5.77593-18.58488l-7.54448-7.7333-8.07935-6.21117a22.14681,22.14681,0,0,1-7.53126-24.041l.65713-2.133a18.89126,18.89126,0,0,1,2.45068-5.09189l2.8666-4.19764a87.13787,87.13787,0,0,0,14.94112-54.21717c-1.08217-18.41408-2.37387-40.39376-2.96485-50.45128a8.33006,8.33006,0,0,0-5.49032-7.38547l-.28567-.10336c-17.12541-6.19571-28.30017-23.12274-27.54366-41.72192l1.07444-26.41569a63.99411,63.99411,0,0,1,9.32755-30.79745L40.322,872.1191A104.63388,104.63388,0,0,0,54.46474,833.427l6.73558-43.72638A21.67862,21.67862,0,0,0,51.69556,768.199l-7.49424-4.85167-12.53954-5.76186a30.78415,30.78415,0,0,1-17.70209-26.38443l-1.33884-24.70229a15.97624,15.97624,0,0,1,10.844-16.12169l4.427-1.44383a24.9791,24.9791,0,0,0,10.69833-6.927l6.88406-7.543a47.18253,47.18253,0,0,0,10.20909-45.23158l-5.68205-19.00545a181.41616,181.41616,0,0,1-7.17759-39.64073l-4.13311-60.72394a66.59993,66.59993,0,0,1,.78465-15.66321l1.28647-7.58233a21.77444,21.77444,0,0,1,8.04084-13.5476l1.93032-1.50376a30.38058,30.38058,0,0,0,10.036-33.30432L54.49668,418.973a31.45058,31.45058,0,0,0-11.66584-15.94375L31.0097,394.64053a45.68743,45.68743,0,0,1-19.0591-37.286v-2.67218c0-13.63361,7.4952-26.25181,19.5268-32.06379,10.96021-5.29442,24.314-16.39981,33.88845-39.64364,19.14887-46.48765,2.01567-73.34719,1.00784-76.44637-.31871-.98-4.03134-18.59506-39.30556-51.653C-27.9739,103.292,76.452,57.76805,76.452,57.76805S259.95632-35.03163,470.04717,14.60613a427.33919,427.33919,0,0,0,66.332,10.438c66.71807,4.99621,200.8282,16.96972,200.82728,32.49258l3.59722,3.70926a24.13775,24.13775,0,0,1,5.76931,9.97877c2.22047,7.50221,7.55476,21.09388,18.68718,29.70327,1.46424,1.13238,9.30287,3.87868,16.88233,8.09327a34.87468,34.87468,0,0,1,17.65068,31.432l-.22239,8.71427a7.27075,7.27075,0,0,1-9.21482,6.97305l-2.709-.79811a16.925,16.925,0,0,0-21.01309,12.07295l-5.902,21.50325c-2.19589,8.00047,3.536,15.988,11.5979,16.15766a18.76273,18.76273,0,0,1,2.94956.19744c16.114,4.154,8.91815,25.99725,14.55541,44.91464a51.01288,51.01288,0,0,1-3.35524,37.02865L769.1106,322.37359a25.01122,25.01122,0,0,0-1.42036,3.52767L756.19718,362.1951a32.30208,32.30208,0,0,0,1.9076,24.19868L779.55346,429.102a43.54577,43.54577,0,0,1,2.83729,7.17124L798.9836,492.2686a36.62506,36.62506,0,0,1-3.00353,28.0224l-13.83723,25.11211a19.07067,19.07067,0,0,1-11.37752,9.1722h0a23.00229,23.00229,0,0,0-16.26713,23.7849l3.09908,46.01684a75.44358,75.44358,0,0,0,3.69723,18.78637l17.78757,53.35746a16.64646,16.64646,0,0,0,3.83214,6.32736l11.12594,11.4725a8.74271,8.74271,0,0,1,.57191,11.43165l-5.01915,6.36983a13.83942,13.83942,0,0,1-8.43768,5.09318l-8.21139,1.45986a22.413,22.413,0,0,0-18.05328,19.03748l-4.9512,34.16705a163.35081,163.35081,0,0,0,7.34733,77.03176L777.2832,926.3959l20.21058,58.35231a94.97854,94.97854,0,0,1,1.489,57.36306l-1.7902,6.19718a63.64549,63.64549,0,0,1-12.90531,23.89822l-21.78058,25.26639a65.86262,65.86262,0,0,0-15.711,46.82968l3.61406,61.4894a20.71533,20.71533,0,0,0,11.20091,17.45627,31.67729,31.67729,0,0,1,15.6725,16.18476c6.01151,14.46377,10.26737,26.29968,18.09212,47.83789a136.20731,136.20731,0,0,1,7.50633,59.80493c-2.69888,27.457-7.98678,65.13575-17.58311,82.45242a36.37479,36.37479,0,0,1-8.26309,10.14755,43.06233,43.06233,0,0,0-15.82338,35.095l1.41273,31.56286a41.29729,41.29729,0,0,0,9.61991,24.76831l9.2239,10.93789a19.88421,19.88421,0,0,0,4.16256,3.72434l8.71988,5.818a33.7649,33.7649,0,0,1,11.24048,12.61028c5.39516,10.44266,11.703,28.67758,1.74921,45.09973-.58914.972-4.09754,2.99172-7.10556,5.1316a35.42947,35.42947,0,0,1-13.08712,5.71349l-17.41758,3.75909a25.80091,25.80091,0,0,0-20.02517,23.59436c-1.80525,25.53793-4.13158,68.269-.47582,79.57786,2.88051,8.91071,13.52492,12.48428,19.28454,13.78956a20.91655,20.91655,0,0,1,7.69392,3.54783l7.35031,5.36865a18.12221,18.12221,0,0,1,5.00252,23.32181l-3.00914,5.43a22.20949,22.20949,0,0,1-15.73464,11.23821l-4.51984.75172a21.58564,21.58564,0,0,0-17.19008,26.59887c.87615,3.34654,2.46111,6.26559,5.13008,8.10032,6.01458,4.13462,10.66995,4.62134,18.57991,7.70557a34.84635,34.84635,0,0,1,15.58077,12.13583l14.72753,20.443a19.84959,19.84959,0,0,1,3.19974,16.01491l-5.081,22.12145a23.5383,23.5383,0,0,1-8.62227,13.46951l-10.42669,7.94674a6.15264,6.15264,0,0,0-.37788,9.47427l2.68015,2.40316a40.68484,40.68484,0,0,1,13.22752,33.48609l-.17955,2.268c-1.36873,17.28915-11.24683,32.29539-27.5504,38.96683l-1.34317.27545a4.62873,4.62873,0,0,0-2.39162,1.31812h0l-6.01151,6.19877c-4.87766,10.68789,2.79181,17.13356,10.24687,26.102l23.81835,28.65363,0,0a57.9987,57.9987,0,0,1,18.61577,41.40373l1.24527,53.28866a124.84012,124.84012,0,0,1-.56577,15.13979L808.7979,2222.77a90.41877,90.41877,0,0,1-17.24891,44.95874l-24.19658,32.66217a68.62176,68.62176,0,0,0-12.87,48.93353l4.30937,36.04251a23.494,23.494,0,0,0,10.367,16.82938c6.13743,4.05,13.47531,10.91421,15.13776,21.19957,2.00278,12.391-.94043,13.74158-2.05762,22.06085a10.73507,10.73507,0,0,1-7.33619,8.87127h0a28.78553,28.78553,0,0,0-19.57749,22.92547l-3.30733,20.03577a21.66547,21.66547,0,0,0,5.742,18.58609l7.50019,7.7338,8.03192,6.21158a22.22578,22.22578,0,0,1,7.487,24.04252l-.65328,2.13313a18.94072,18.94072,0,0,1-2.43629,5.09222l-2.84977,4.19792a87.53,87.53,0,0,0-14.85341,54.2207c1.07607,18.41954,2.36053,40.40655,2.94786,50.46154a8.39375,8.39375,0,0,0,5.5148,7.39977l.22687.08257c17.02487,6.19612,28.134,23.12424,27.38195,41.72463l-1.06813,26.41742a64.274,64.274,0,0,1-9.27279,30.79945l-12.59252,20.69447a105.03565,105.03565,0,0,0-14.05975,38.69459l-6.696,43.72922a21.73208,21.73208,0,0,0,9.449,21.503l7.45024,4.852,12.46592,5.76223a30.7889,30.7889,0,0,1,17.59817,26.38615l1.331,24.7039a15.97609,15.97609,0,0,1-10.78032,16.12274l-4.401,1.44393a24.818,24.818,0,0,0-10.63553,6.92747l-6.84364,7.54348a47.39358,47.39358,0,0,0-10.14915,45.23452L763.502,3058.997a182.4026,182.4026,0,0,1,7.13546,39.64331l4.10884,60.7279a66.99758,66.99758,0,0,1-.78023,15.66531l-1.27873,7.58174a21.8002,21.8002,0,0,1-7.99363,13.54848l-1.919,1.50386a30.49141,30.49141,0,0,0-9.97709,33.30649l6.23532,19.28862a31.44165,31.44165,0,0,0,11.59735,15.94479l11.75174,8.38924a45.776,45.776,0,0,1,18.9472,37.28842v2.67235c0,13.6345-7.45119,26.25353-19.41216,32.06588-10.89586,5.29478-24.17128,16.40088-33.6895,39.64622-19.03644,46.49069-2.00383,73.352-1.00192,76.45135.31684.98011,4.00768,18.59627,39.07481,51.65631,54.71889,51.587-49.094,97.11387-49.094,97.11387S586.36882,3683.81,406.60484,3685.8762,76.452,3611.49111,76.452,3611.49111Z" style="fill:#92cfcc"/></g></g></svg>