<svg preserveAspectRatio="none" xmlns="http://www.w3.org/2000/svg" viewBox="0 0 813.20833 3699.34799"><title>middle</title><g id="Layer_2" data-name="Layer 2"><g id="Middle"><path d="M76.45134,3624.92175l-3.61846-3.709a24.10325,24.10325,0,0,1-5.80338-9.97812c-2.23358-7.50173-7.59937-21.09251-18.79754-29.70134-1.47288-1.13231-9.3578-3.87842-16.982-8.09274A34.83088,34.83088,0,0,1,13.495,3542.01061l.22371-8.7137a7.30541,7.30541,0,0,1,9.26923-6.9726l2.725.79806a17.03616,17.03616,0,0,0,21.13719-12.07216l5.93684-21.50185a12.65,12.65,0,0,0-11.6664-16.15661,18.983,18.983,0,0,1-2.967-.19744c-16.20919-4.15372-8.97081-25.99555-14.64136-44.91171a50.73473,50.73473,0,0,1,3.37506-37.02623l17.4715-35.15426a24.93223,24.93223,0,0,0,1.42911-3.5286l11.56057-36.29032a32.12577,32.12577,0,0,0-1.91887-24.19711l-21.58195-42.71854a43.24421,43.24421,0,0,1-2.84406-7.14636l-16.69421-56.003a36.42914,36.42914,0,0,1,3.02126-28.02058l13.919-25.11047a19.16145,19.16145,0,0,1,11.4447-9.17161h0a23.00677,23.00677,0,0,0,16.36319-23.78336l-3.11739-46.01384a75.04449,75.04449,0,0,0-3.71905-18.78514l-17.89262-53.354a16.62765,16.62765,0,0,0-3.85477-6.32695l-11.19165-11.47176a8.70327,8.70327,0,0,1-.57528-11.43089l5.04879-6.36942a13.93545,13.93545,0,0,1,8.48751-5.09285l8.25988-1.45976a22.47017,22.47017,0,0,0,18.1599-19.03625l4.98043-34.16482a162.424,162.424,0,0,0-7.39072-77.02675l-20.11461-57.4806L15.808,2697.7706a94.43618,94.43618,0,0,1-1.49782-57.35933l1.80077-6.19676a63.52513,63.52513,0,0,1,12.98152-23.89667l21.90921-25.26475a65.6096,65.6096,0,0,0,15.80377-46.82663l-3.63541-61.4854A20.70633,20.70633,0,0,0,51.903,2459.28593a31.76722,31.76722,0,0,1-15.765-16.1837c-6.047-14.46283-10.328-26.298-18.199-47.83478a135.44725,135.44725,0,0,1-7.55065-59.801c2.71481-27.45523,8.03394-65.13151,17.68694-82.44705a36.40632,36.40632,0,0,1,8.31189-10.14688,42.95206,42.95206,0,0,0,15.91683-35.0927L50.88291,2176.219a41.156,41.156,0,0,0-9.67672-24.76669l-9.27838-10.93719a19.96234,19.96234,0,0,0-4.18713-3.72409l-8.77138-5.81765a33.83048,33.83048,0,0,1-11.30686-12.60947c-5.427-10.442-11.77212-28.67571-1.75954-45.09679.59262-.97192,4.12174-2.99152,7.14752-5.13127a35.747,35.747,0,0,1,13.1644-5.71311l17.52044-3.75885A25.84482,25.84482,0,0,0,63.87869,2035.071c1.81592-25.53627,4.156-68.26451.47863-79.57268-2.89752-8.91013-13.60478-12.48346-19.39842-13.78866a21.09813,21.09813,0,0,1-7.73935-3.5476l-7.39372-5.3683a18.05211,18.05211,0,0,1-5.03207-23.32029l3.02691-5.42967a22.33537,22.33537,0,0,1,15.82757-11.23748l4.54652-.75166a21.587,21.587,0,0,0,17.29161-26.59715c-.88133-3.34632-2.47565-6.26518-5.16039-8.09979-6.05009-4.13435-10.733-4.621-18.68962-7.70507a35.02335,35.02335,0,0,1-15.67279-12.135l-14.8145-20.4417a19.75379,19.75379,0,0,1-3.21864-16.01386l5.111-22.12a23.523,23.523,0,0,1,8.67318-13.46863l10.50245-7.957a6.12435,6.12435,0,0,0,.37662-9.45339l-2.70666-2.41252a40.55737,40.55737,0,0,1-13.30564-33.48392l.18061-2.26788c1.37681-17.288,11.31325-32.29328,27.7131-38.96429l1.3511-.27543a4.664,4.664,0,0,0,2.40574-1.318h0l6.047-6.19837c4.90647-10.68719-2.80829-17.13244-10.30737-26.10034l-23.959-28.65177,0,0a57.84358,57.84358,0,0,1-18.72571-41.401l-1.25258-53.283a124.12754,124.12754,0,0,1,.56924-15.14272l3.83362-38.73431a90.09816,90.09816,0,0,1,17.35076-44.95581l24.33948-32.66005a68.31454,68.31454,0,0,0,12.946-48.93033l-4.33482-36.04018a23.47455,23.47455,0,0,0-10.42827-16.82827c-6.17367-4.04971-13.55489-10.9135-15.22715-21.1982-2.01461-12.39019.946-13.74068,2.06977-22.05941a10.75068,10.75068,0,0,1,7.37951-8.87069h0a28.83437,28.83437,0,0,0,19.69311-22.924l3.32685-20.03447a21.5806,21.5806,0,0,0-5.77593-18.58487l-7.54448-7.73331-8.07935-6.21117a22.14682,22.14682,0,0,1-7.53126-24.041l.65713-2.133a18.8914,18.8914,0,0,1,2.45068-5.09189l2.8666-4.19764A87.13781,87.13781,0,0,0,53.53689,1063.118c-1.08218-18.41408-2.37388-40.39376-2.96486-50.45128a8.33,8.33,0,0,0-5.49031-7.38547l-.28568-.10335c-17.12541-6.19572-28.30016-23.12275-27.54365-41.72192l1.07444-26.4157a63.9941,63.9941,0,0,1,9.32754-30.79745l12.6669-20.69312A104.63356,104.63356,0,0,0,54.464,846.85767l6.73559-43.72638a21.67865,21.67865,0,0,0-9.50476-21.50161L44.20062,776.778l-12.53953-5.76186A30.78413,30.78413,0,0,1,13.959,744.63173l-1.33884-24.7023a15.97624,15.97624,0,0,1,10.844-16.12168l4.427-1.44384a24.979,24.979,0,0,0,10.69833-6.927l6.88406-7.543a47.18253,47.18253,0,0,0,10.20909-45.23158l-5.682-19.00545a181.41607,181.41607,0,0,1-7.1776-39.64073L38.68983,523.2922a66.6,66.6,0,0,1,.78466-15.66321l1.28646-7.58233a21.77444,21.77444,0,0,1,8.04084-13.5476l1.93033-1.50376a30.38057,30.38057,0,0,0,10.036-33.30432L54.496,432.40361a31.45058,31.45058,0,0,0-11.66584-15.94375L31.009,408.07117a45.68742,45.68742,0,0,1-19.05909-37.286V368.113c0-13.63361,7.49519-26.25182,19.5268-32.0638,10.9602-5.29442,24.314-16.39981,33.88845-39.64364C84.514,249.91791,67.38083,223.05837,66.373,219.9592c-.3187-.98005-4.03134-18.59507-39.30556-51.653C-27.9746,116.72259,76.45134,71.1987,76.45134,71.1987S259.95563-21.601,470.04647,28.03677a427.338,427.338,0,0,0,66.332,10.438c66.71808,4.99621,200.8282,16.96972,200.82729,32.49258l3.59722,3.70927a24.13774,24.13774,0,0,1,5.7693,9.97876c2.22047,7.50222,7.55476,21.09389,18.68718,29.70327,1.46424,1.13239,9.30287,3.87868,16.88234,8.09327a34.87467,34.87467,0,0,1,17.65067,31.432l-.22239,8.71427a7.27074,7.27074,0,0,1-9.21481,6.97305l-2.709-.79811a16.925,16.925,0,0,0-21.0131,12.07295l-5.902,21.50325c-2.19589,8.00048,3.536,15.988,11.59791,16.15766a18.76112,18.76112,0,0,1,2.94956.19745c16.114,4.154,8.91815,25.99724,14.55541,44.91463a51.01293,51.01293,0,0,1-3.35525,37.02865L769.1099,335.80423a25.01086,25.01086,0,0,0-1.42036,3.52768l-11.49306,36.29383a32.30213,32.30213,0,0,0,1.9076,24.19868l21.44868,42.70826a43.54528,43.54528,0,0,1,2.8373,7.17124l16.59284,55.99532a36.6251,36.6251,0,0,1-3.00352,28.0224l-13.83724,25.11211a19.07065,19.07065,0,0,1-11.37751,9.1722h0a23.00227,23.00227,0,0,0-16.26712,23.78491l3.09908,46.01683a75.44357,75.44357,0,0,0,3.69722,18.78637l17.78757,53.35746a16.64683,16.64683,0,0,0,3.83214,6.32737l11.12595,11.4725a8.74271,8.74271,0,0,1,.5719,11.43164l-5.01915,6.36983a13.83936,13.83936,0,0,1-8.43768,5.09318l-8.21139,1.45986a22.413,22.413,0,0,0-18.05328,19.03748l-4.9512,34.16705A163.35081,163.35081,0,0,0,757.286,882.3422l19.99652,57.48434,20.21058,58.35231a94.9785,94.9785,0,0,1,1.489,57.36307l-1.7902,6.19717a63.64539,63.64539,0,0,1-12.9053,23.89822L762.506,1110.9037a65.86269,65.86269,0,0,0-15.711,46.82969l3.61406,61.48939A20.71536,20.71536,0,0,0,761.61,1236.67905a31.67731,31.67731,0,0,1,15.67249,16.18476c6.01151,14.46377,10.26737,26.29969,18.09212,47.8379a136.207,136.207,0,0,1,7.50633,59.80492c-2.69888,27.457-7.98678,65.13575-17.5831,82.45242a36.37489,36.37489,0,0,1-8.2631,10.14755,43.06234,43.06234,0,0,0-15.82338,35.095l1.41274,31.56287a41.29725,41.29725,0,0,0,9.6199,24.7683l9.22391,10.93789a19.88416,19.88416,0,0,0,4.16255,3.72434l8.71989,5.818a33.76507,33.76507,0,0,1,11.24048,12.61028c5.39515,10.44266,11.703,28.67758,1.74921,45.09973-.58914.972-4.09755,2.99172-7.10557,5.13161a35.42964,35.42964,0,0,1-13.08711,5.71348l-17.41758,3.75909a25.80092,25.80092,0,0,0-20.02518,23.59437c-1.80525,25.53793-4.13158,68.269-.47582,79.57785,2.88052,8.91071,13.52492,12.48428,19.28454,13.78956a20.91647,20.91647,0,0,1,7.69392,3.54783l7.35031,5.36865a18.12221,18.12221,0,0,1,5.00253,23.32181l-3.00914,5.43a22.20951,22.20951,0,0,1-15.73465,11.23821l-4.51983.75172a21.58565,21.58565,0,0,0-17.19009,26.59887c.87615,3.34654,2.46112,6.26559,5.13009,8.10033,6.01457,4.13461,10.66995,4.62134,18.5799,7.70556a34.84633,34.84633,0,0,1,15.58078,12.13583l14.72752,20.443a19.8496,19.8496,0,0,1,3.19975,16.0149l-5.081,22.12145a23.53828,23.53828,0,0,1-8.62226,13.46951l-10.42669,7.94674a6.15265,6.15265,0,0,0-.37789,9.47427l2.68015,2.40316a40.68486,40.68486,0,0,1,13.22753,33.4861l-.17956,2.268c-1.36872,17.28915-11.24682,32.29539-27.5504,38.96683l-1.34316.27545a4.62877,4.62877,0,0,0-2.39162,1.31812h0l-6.0115,6.19878c-4.87767,10.68789,2.7918,17.13356,10.24686,26.102l23.81835,28.65363,0,0A57.99864,57.99864,0,0,1,811.929,2129.0336l1.24528,53.28866a124.84012,124.84012,0,0,1-.56577,15.13979l-3.81129,38.73858a90.41882,90.41882,0,0,1-17.2489,44.95874l-24.19659,32.66218a68.62171,68.62171,0,0,0-12.87,48.93352l4.30936,36.04252a23.494,23.494,0,0,0,10.36706,16.82937c6.13742,4.05,13.4753,10.91421,15.13775,21.19958,2.00278,12.391-.94043,13.74157-2.05762,22.06084a10.73507,10.73507,0,0,1-7.33619,8.87127h0a28.78549,28.78549,0,0,0-19.5775,22.92546l-3.30732,20.03577a21.66547,21.66547,0,0,0,5.742,18.58609l7.50018,7.73381,8.03192,6.21157a22.22575,22.22575,0,0,1,7.48705,24.04252l-.65327,2.13314a18.9411,18.9411,0,0,1-2.43629,5.09221l-2.84978,4.19792a87.53005,87.53005,0,0,0-14.85341,54.2207c1.07607,18.41954,2.36054,40.40655,2.94786,50.46154a8.39376,8.39376,0,0,0,5.5148,7.39977l.22688.08257c17.02487,6.19612,28.134,23.12425,27.38195,41.72463l-1.06814,26.41742a64.274,64.274,0,0,1-9.27278,30.79945l-12.59253,20.69447a105.03563,105.03563,0,0,0-14.05974,38.69459l-6.69605,43.72923a21.73207,21.73207,0,0,0,9.449,21.503l7.45025,4.852,12.46592,5.76224a30.78891,30.78891,0,0,1,17.59817,26.38614l1.331,24.70391a15.97608,15.97608,0,0,1-10.78032,16.12273l-4.401,1.44393a24.81793,24.81793,0,0,0-10.63552,6.92747l-6.84364,7.54348a47.39357,47.39357,0,0,0-10.14916,45.23453l5.64868,19.00669a182.40181,182.40181,0,0,1,7.13546,39.6433l4.10885,60.7279a66.9986,66.9986,0,0,1-.78023,15.66531l-1.27873,7.58174a21.80019,21.80019,0,0,1-7.99364,13.54848l-1.919,1.50386a30.49142,30.49142,0,0,0-9.97709,33.30649l6.23532,19.28863a31.44163,31.44163,0,0,0,11.59736,15.94478l11.75173,8.38924a45.776,45.776,0,0,1,18.94721,37.28843v2.67235c0,13.63449-7.4512,26.25352-19.41217,32.06587-10.89586,5.29478-24.17127,16.40088-33.68949,39.64623-19.03645,46.49068-2.00384,73.352-1.00192,76.45134.31683.98011,4.00767,18.59627,39.07481,51.65632,54.71889,51.587-49.094,97.11387-49.094,97.11387s-150.83766,72.31882-330.60163,74.38508S76.45134,3624.92175,76.45134,3624.92175Z" style="fill:#56aaa3"/><path d="M76.45134,3611.49111l-3.61846-3.709a24.10315,24.10315,0,0,1-5.80338-9.97811c-2.23358-7.50173-7.59937-21.09251-18.79754-29.70134-1.47288-1.13231-9.3578-3.87843-16.982-8.09274A34.83089,34.83089,0,0,1,13.495,3528.58l.22371-8.7137a7.30541,7.30541,0,0,1,9.26923-6.9726l2.725.79806a17.03616,17.03616,0,0,0,21.13719-12.07216l5.93684-21.50186a12.65,12.65,0,0,0-11.6664-16.1566,18.983,18.983,0,0,1-2.967-.19744c-16.20919-4.15372-8.97081-25.99555-14.64136-44.91171a50.73476,50.73476,0,0,1,3.37506-37.02624l17.4715-35.15426a24.93211,24.93211,0,0,0,1.42911-3.52859l11.56057-36.29033a32.12575,32.12575,0,0,0-1.91887-24.1971L33.84767,3239.9369a43.24421,43.24421,0,0,1-2.84406-7.14636l-16.69421-56.003a36.42914,36.42914,0,0,1,3.02126-28.02058l13.919-25.11047a19.16141,19.16141,0,0,1,11.4447-9.17161h0a23.00678,23.00678,0,0,0,16.36319-23.78336l-3.11739-46.01384a75.04465,75.04465,0,0,0-3.71905-18.78515l-17.89262-53.354a16.62765,16.62765,0,0,0-3.85477-6.32695l-11.19165-11.47176a8.70329,8.70329,0,0,1-.57528-11.4309l5.04879-6.36941a13.93545,13.93545,0,0,1,8.48751-5.09285l8.25988-1.45976a22.47017,22.47017,0,0,0,18.1599-19.03625l4.98043-34.16483a162.424,162.424,0,0,0-7.39072-77.02674l-20.11461-57.4806L15.808,2684.34a94.43618,94.43618,0,0,1-1.49782-57.35933l1.80077-6.19677a63.52516,63.52516,0,0,1,12.98152-23.89666l21.90921-25.26475a65.6096,65.6096,0,0,0,15.80377-46.82663l-3.63541-61.4854A20.70633,20.70633,0,0,0,51.903,2445.85529a31.76721,31.76721,0,0,1-15.765-16.18371c-6.047-14.46282-10.328-26.298-18.199-47.83478a135.44719,135.44719,0,0,1-7.55065-59.801c2.71481-27.45524,8.03394-65.13151,17.68694-82.447a36.40646,36.40646,0,0,1,8.31189-10.14689A42.952,42.952,0,0,0,52.304,2194.34914l-1.42108-31.56082a41.15594,41.15594,0,0,0-9.67672-24.76668l-9.27838-10.93719a19.96267,19.96267,0,0,0-4.18713-3.7241l-8.77138-5.81765a33.83037,33.83037,0,0,1-11.30686-12.60946c-5.427-10.442-11.77212-28.67571-1.75954-45.09679.59262-.97192,4.12174-2.99152,7.14752-5.13127a35.747,35.747,0,0,1,13.1644-5.71311l17.52044-3.75885a25.84483,25.84483,0,0,0,20.14343-23.59283c1.81592-25.53626,4.156-68.2645.47863-79.57267-2.89752-8.91013-13.60478-12.48347-19.39842-13.78866a21.09813,21.09813,0,0,1-7.73935-3.5476l-7.39372-5.3683a18.05211,18.05211,0,0,1-5.03207-23.32029l3.02691-5.42967a22.33537,22.33537,0,0,1,15.82757-11.23748l4.54652-.75167a21.58693,21.58693,0,0,0,17.29161-26.59714c-.88133-3.34632-2.47565-6.26518-5.16039-8.0998-6.05009-4.13434-10.733-4.621-18.68962-7.70506a35.02335,35.02335,0,0,1-15.67279-12.135l-14.8145-20.4417a19.75379,19.75379,0,0,1-3.21864-16.01386l5.111-22.12a23.523,23.523,0,0,1,8.67318-13.46863l10.50245-7.957a6.12435,6.12435,0,0,0,.37662-9.45339l-2.70666-2.41252A40.55737,40.55737,0,0,1,16.58141,1698.736l.18061-2.26788c1.37681-17.288,11.31325-32.29329,27.7131-38.96429l1.3511-.27543a4.664,4.664,0,0,0,2.40574-1.318h0l6.047-6.19837c4.90647-10.6872-2.80829-17.13245-10.30737-26.10035l-23.959-28.65176,0,0a57.84358,57.84358,0,0,1-18.72571-41.401l-1.25258-53.283a124.12754,124.12754,0,0,1,.56924-15.14272l3.83362-38.73431A90.09816,90.09816,0,0,1,21.7879,1401.443l24.33948-32.66a68.31455,68.31455,0,0,0,12.946-48.93034l-4.33482-36.04017a23.47455,23.47455,0,0,0-10.42827-16.82827c-6.17367-4.04971-13.55489-10.91351-15.22715-21.1982-2.01461-12.39019.946-13.74068,2.06977-22.05941a10.75068,10.75068,0,0,1,7.37951-8.87069h0a28.83437,28.83437,0,0,0,19.69311-22.924l3.32685-20.03446a21.58063,21.58063,0,0,0-5.77593-18.58488l-7.54448-7.7333-8.07935-6.21117a22.14682,22.14682,0,0,1-7.53126-24.041l.65713-2.133a18.89126,18.89126,0,0,1,2.45068-5.09189l2.8666-4.19764a87.13781,87.13781,0,0,0,14.94113-54.21717c-1.08218-18.41408-2.37388-40.39376-2.96486-50.45128a8.33,8.33,0,0,0-5.49031-7.38547l-.28568-.10336c-17.12541-6.19571-28.30016-23.12274-27.54365-41.72192l1.07444-26.41569a63.9941,63.9941,0,0,1,9.32754-30.79745l12.6669-20.69312A104.63369,104.63369,0,0,0,54.464,833.427l6.73559-43.72638A21.67865,21.67865,0,0,0,51.69487,768.199l-7.49425-4.85167-12.53953-5.76186A30.78414,30.78414,0,0,1,13.959,731.20108l-1.33884-24.70229a15.97625,15.97625,0,0,1,10.844-16.12169l4.427-1.44383a24.979,24.979,0,0,0,10.69833-6.927l6.88406-7.543a47.18253,47.18253,0,0,0,10.20909-45.23158l-5.682-19.00545a181.41618,181.41618,0,0,1-7.1776-39.64073l-4.13311-60.72394a66.59994,66.59994,0,0,1,.78466-15.66321L40.761,486.616a21.77444,21.77444,0,0,1,8.04084-13.5476l1.93033-1.50376a30.38058,30.38058,0,0,0,10.036-33.30432L54.496,418.973a31.45058,31.45058,0,0,0-11.66584-15.94375L31.009,394.64053a45.68742,45.68742,0,0,1-19.05909-37.286v-2.67218c0-13.63361,7.49519-26.25181,19.5268-32.06379,10.9602-5.29442,24.314-16.39981,33.88845-39.64364,19.14886-46.48765,2.01567-73.34719,1.00783-76.44637-.3187-.98-4.03134-18.59506-39.30556-51.653C-27.9746,103.292,76.45134,57.76805,76.45134,57.76805S259.95563-35.03163,470.04647,14.60613a427.33919,427.33919,0,0,0,66.332,10.438c66.71808,4.99621,200.8282,16.96972,200.82729,32.49258L740.803,61.246a24.13784,24.13784,0,0,1,5.7693,9.97877c2.22047,7.50221,7.55476,21.09388,18.68718,29.70327,1.46424,1.13238,9.30287,3.87868,16.88234,8.09327a34.87467,34.87467,0,0,1,17.65067,31.432l-.22239,8.71427a7.27074,7.27074,0,0,1-9.21481,6.97305l-2.709-.79811a16.925,16.925,0,0,0-21.0131,12.07295l-5.902,21.50325c-2.19589,8.00047,3.536,15.988,11.59791,16.15766a18.76285,18.76285,0,0,1,2.94956.19744c16.114,4.154,8.91815,25.99725,14.55541,44.91464a51.01293,51.01293,0,0,1-3.35525,37.02865L769.1099,322.37359a25.01122,25.01122,0,0,0-1.42036,3.52767L756.19648,362.1951a32.30213,32.30213,0,0,0,1.9076,24.19868L779.55276,429.102a43.54493,43.54493,0,0,1,2.8373,7.17124L798.9829,492.2686a36.6251,36.6251,0,0,1-3.00352,28.0224l-13.83724,25.11211a19.07065,19.07065,0,0,1-11.37751,9.1722h0a23.00227,23.00227,0,0,0-16.26712,23.7849l3.09908,46.01684a75.44357,75.44357,0,0,0,3.69722,18.78637l17.78757,53.35746a16.64671,16.64671,0,0,0,3.83214,6.32736l11.12595,11.4725a8.74272,8.74272,0,0,1,.5719,11.43165l-5.01915,6.36983a13.83936,13.83936,0,0,1-8.43768,5.09318l-8.21139,1.45986a22.413,22.413,0,0,0-18.05328,19.03748l-4.9512,34.16705a163.35081,163.35081,0,0,0,7.34734,77.03176L777.2825,926.3959l20.21058,58.35231a94.97846,94.97846,0,0,1,1.489,57.36306l-1.7902,6.19718a63.64546,63.64546,0,0,1-12.9053,23.89822L762.506,1097.47306a65.86266,65.86266,0,0,0-15.711,46.82968l3.61406,61.4894A20.71536,20.71536,0,0,0,761.61,1223.24841a31.67731,31.67731,0,0,1,15.67249,16.18476c6.01151,14.46377,10.26737,26.29968,18.09212,47.83789A136.207,136.207,0,0,1,802.881,1347.076c-2.69888,27.457-7.98678,65.13575-17.5831,82.45242a36.37489,36.37489,0,0,1-8.2631,10.14755,43.06233,43.06233,0,0,0-15.82338,35.095l1.41274,31.56286a41.29727,41.29727,0,0,0,9.6199,24.76831l9.22391,10.93789a19.88416,19.88416,0,0,0,4.16255,3.72434l8.71989,5.818a33.76507,33.76507,0,0,1,11.24048,12.61028c5.39515,10.44266,11.703,28.67758,1.74921,45.09973-.58914.972-4.09755,2.99172-7.10557,5.1316a35.4295,35.4295,0,0,1-13.08711,5.71349l-17.41758,3.75909a25.80092,25.80092,0,0,0-20.02518,23.59436c-1.80525,25.53793-4.13158,68.269-.47582,79.57786,2.88052,8.91071,13.52492,12.48428,19.28454,13.78956a20.91647,20.91647,0,0,1,7.69392,3.54783l7.35031,5.36865a18.12221,18.12221,0,0,1,5.00253,23.32181l-3.00914,5.43a22.20951,22.20951,0,0,1-15.73465,11.23821l-4.51983.75172a21.58565,21.58565,0,0,0-17.19009,26.59887c.87615,3.34654,2.46112,6.26559,5.13009,8.10032,6.01457,4.13462,10.66995,4.62134,18.5799,7.70557a34.84633,34.84633,0,0,1,15.58078,12.13583l14.72752,20.443a19.84963,19.84963,0,0,1,3.19975,16.01491l-5.081,22.12145a23.53828,23.53828,0,0,1-8.62226,13.46951l-10.42669,7.94674a6.15265,6.15265,0,0,0-.37789,9.47427l2.68015,2.40316a40.68485,40.68485,0,0,1,13.22753,33.48609l-.17956,2.268c-1.36872,17.28915-11.24682,32.29539-27.5504,38.96683l-1.34316.27545a4.62869,4.62869,0,0,0-2.39162,1.31812h0l-6.0115,6.19877c-4.87767,10.68789,2.7918,17.13356,10.24686,26.102l23.81835,28.65363,0,0A57.99862,57.99862,0,0,1,811.929,2115.603l1.24528,53.28866a124.84012,124.84012,0,0,1-.56577,15.13979L808.7972,2222.77a90.41886,90.41886,0,0,1-17.2489,44.95874l-24.19659,32.66217a68.62175,68.62175,0,0,0-12.87,48.93353l4.30936,36.04251a23.494,23.494,0,0,0,10.36706,16.82938c6.13742,4.05,13.4753,10.91421,15.13775,21.19957,2.00278,12.391-.94043,13.74158-2.05762,22.06085a10.73507,10.73507,0,0,1-7.33619,8.87127h0a28.78552,28.78552,0,0,0-19.5775,22.92547l-3.30732,20.03577a21.66547,21.66547,0,0,0,5.742,18.58609l7.50018,7.7338,8.03192,6.21158a22.22574,22.22574,0,0,1,7.48705,24.04252l-.65327,2.13313a18.941,18.941,0,0,1-2.43629,5.09222l-2.84978,4.19792a87.53,87.53,0,0,0-14.85341,54.2207c1.07607,18.41954,2.36054,40.40655,2.94786,50.46154a8.39377,8.39377,0,0,0,5.5148,7.39977l.22688.08257c17.02487,6.19612,28.134,23.12424,27.38195,41.72463l-1.06814,26.41742a64.274,64.274,0,0,1-9.27278,30.79945l-12.59253,20.69447a105.03563,105.03563,0,0,0-14.05974,38.69459l-6.69605,43.72922a21.73208,21.73208,0,0,0,9.449,21.503l7.45025,4.852,12.46592,5.76223a30.78893,30.78893,0,0,1,17.59817,26.38615l1.331,24.7039a15.9761,15.9761,0,0,1-10.78032,16.12274l-4.401,1.44393a24.81793,24.81793,0,0,0-10.63552,6.92747l-6.84364,7.54348a47.39356,47.39356,0,0,0-10.14916,45.23452l5.64868,19.00669a182.402,182.402,0,0,1,7.13546,39.64331l4.10885,60.7279a66.99866,66.99866,0,0,1-.78023,15.66531l-1.27873,7.58174a21.80022,21.80022,0,0,1-7.99364,13.54848l-1.919,1.50386a30.49142,30.49142,0,0,0-9.97709,33.30649l6.23532,19.28862a31.44161,31.44161,0,0,0,11.59736,15.94479l11.75173,8.38924a45.776,45.776,0,0,1,18.94721,37.28842v2.67235c0,13.6345-7.4512,26.25353-19.41217,32.06588-10.89586,5.29478-24.17127,16.40088-33.68949,39.64622-19.03645,46.49069-2.00384,73.352-1.00192,76.45135.31683.98011,4.00767,18.59627,39.07481,51.65631,54.71889,51.587-49.094,97.11387-49.094,97.11387S586.36812,3683.81,406.60415,3685.8762,76.45134,3611.49111,76.45134,3611.49111Z" style="fill:#92cfcc"/></g></g></svg>