<svg xmlns="http://www.w3.org/2000/svg" viewBox="0 0 888 3600"><title>parallax-background</title><g id="Layer_1" data-name="Layer 1"><rect x="88" width="800" height="3600" style="fill:#318291"/></g><g id="Bottom"><path d="M-86.89763,3435.15126c17.63794,64.26181,168.66282,92.37636,168.66282,92.37636s412.28689,65.2659,564.41414-43.17591,148.82014-310.264,148.82014-310.264V2638.90727s-1.10237,0-109.13477-156.63816-33.3492-212.33939-60.63042-335.36632c-56.22094-253.53293,70.55176-198.30793,38.583-316.79064-9.16385-33.9631-48.04768-74.4436-98.111-136.05431-280.33618-344.997,229.29325-457.86539,229.29325-457.86539V620.6848c-83.78023-31.12682-65.03991-234.95725-65.03991-234.95725S726.65244,106.59031,335.31061,88.51668c0,0-432.12958-37.15136-422.20824,384.56677S98.30076,620.6848,98.30076,1239.20472c0,0,6.61423,228.9327-186.30076,543.21311v828.3749s262.36439,103.42135,262.36439,369.50541S-88,3275.50083-88,3275.50083Z" transform="translate(88)" style="fill:#207770"/><path d="M-86.89763,3408.04081c17.63794,64.26181,168.66282,92.37635,168.66282,92.37635s412.28689,65.26591,564.41414-43.1759,148.82014-310.264,148.82014-310.264V2611.79682s-1.10237,0-109.13477-156.63816-17.605-216.13009-60.63042-335.36632c-103.62291-287.17,188.5055-147.60135-59.52806-452.84495C285.37,1321.95042,794.99947,1209.082,794.99947,1209.082V593.57434c-83.78023-31.12681-65.03991-234.95724-65.03991-234.95724S726.65244,79.47986,335.31061,61.40623c0,0-432.12958-37.15136-422.20824,384.56677S98.30076,593.57434,98.30076,1212.09427c0,0,6.61423,228.9327-186.30076,543.21311v828.3749s262.36439,103.42135,262.36439,369.50541S-88,3248.39038-88,3248.39038Z" transform="translate(88)" style="fill:#4db1a7"/></g><g id="Middle"><path d="M.99211,3337.69179c15.87381,61.53808,151.79329,88.461,151.79329,88.461s371.05024,62.4996,507.96183-41.34589,133.93525-297.1135,133.93525-297.1135V2575.19663s-.99211,0-98.21918-149.999-30.01364-203.33938-54.56621-321.15181c-50.59777-242.78692,63.49523-189.90264,34.72395-303.36346-8.24729-32.52357-43.242-71.2883-88.298-130.28764-252.29716-330.37426,206.35949-438.45875,206.35949-438.45875V642.51659C719.2819,612.70909,736.14782,417.518,736.14782,417.518s-2.97634-267.306-355.17644-284.61358c0,0-388.90828-35.57669-379.97927,368.2669s166.675,141.34525,166.675,733.64919c0,0,5.95268,219.22937-167.66709,520.189v793.2642s236.12288,99.03783,236.12288,353.84391S0,3184.80815,0,3184.80815Z" transform="translate(88)" style="fill:#56aaa3"/><path d="M.99211,3311.73042c15.87381,61.53807,151.79329,88.461,151.79329,88.461s371.05024,62.4996,507.96183-41.34589S794.68248,3061.732,794.68248,3061.732V2549.23526s-.99211,0-98.21918-149.999-15.84418-206.9694-54.56621-321.15181c-93.25862-274.99825,169.65131-141.34525-53.5741-433.65109-252.29716-330.37426,206.35949-438.45875,206.35949-438.45875V616.55522c-75.40058-29.8075-58.53466-224.99857-58.53466-224.99857s-2.97634-267.306-355.17644-284.61358c0,0-388.90828-35.5767-379.97927,368.26689s166.675,141.34526,166.675,733.64919c0,0,5.95268,219.22938-167.66709,520.189v793.26419s236.12288,99.03784,236.12288,353.84391S0,3158.84678,0,3158.84678Z" transform="translate(88)" style="fill:#92cfcc"/></g><g id="Top"><path d="M.99221,2972.37166c15.87538,56.08883,151.8083,80.62769,151.8083,80.62769s371.08694,56.96522,508.01206-37.68468,133.9485-270.80389,133.9485-270.80389V2277.396s-.99221,0-98.2289-136.71653-30.0166-185.33353-54.57161-292.71359c-50.60276-221.288,63.50151-173.08662,34.72739-276.50041-8.24811-29.64358-43.24626-64.97566-88.30678-118.75057C336.05906,1151.59551,794.76107,1053.082,794.76107,1053.082V515.85614c-75.408-27.168-58.54045-205.07479-58.54045-205.07479S733.244,67.14549,381.00905,51.3705c0,0-388.94674-32.42635-380.01684,335.6566s166.69146,128.829,166.69146,668.684c0,0,5.95327,199.81646-167.68367,474.1259v723.02008s236.14624,90.268,236.14624,322.51078S0,2833.026,0,2833.026Z" transform="translate(88)" style="fill:#c5d5de"/><path d="M.99221,2948.70918c15.87538,56.08883,151.8083,80.6277,151.8083,80.6277s371.08694,56.96522,508.01206-37.68468,133.9485-270.80389,133.9485-270.80389v-467.1148s-.99221,0-98.2289-136.71652-15.84574-188.64212-54.57161-292.71359c-93.26784-250.647,169.6681-128.829-53.57939-395.251C336.05906,1127.933,794.76107,1029.4195,794.76107,1029.4195V492.19366c-75.408-27.168-58.54045-205.07479-58.54045-205.07479S733.244,43.483,381.00905,27.708c0,0-388.94674-32.42636-380.01684,335.6566s166.69146,128.829,166.69146,668.684c0,0,5.95327,199.81646-167.68367,474.1259v723.02009s236.14624,90.268,236.14624,322.51078S0,2809.36349,0,2809.36349Z" transform="translate(88)" style="fill:#f2f3f7"/></g></svg>