<svg preserveAspectRatio="none" xmlns="http://www.w3.org/2000/svg" viewBox="0 0 787.13352 3580.73166"><title>top</title><g id="Layer_2" data-name="Layer 2"><g id="Top"><path d="M74,3508.69183l-3.50244-3.5901a23.33026,23.33026,0,0,1-5.6173-9.65818c-2.162-7.26118-7.3557-20.41619-18.19481-28.749-1.42566-1.096-9.05776-3.75407-16.43752-7.83326a33.71408,33.71408,0,0,1-17.18562-30.42215l.21654-8.4343a7.07117,7.07117,0,0,1,8.972-6.749l2.63763.77247a16.48991,16.48991,0,0,0,20.45944-11.68508l5.74648-20.81241a12.24443,12.24443,0,0,0-11.29232-15.63856,18.37466,18.37466,0,0,1-2.87185-.19111c-15.68946-4.02053-8.68317-25.162-14.1719-43.47165a49.108,49.108,0,0,1,3.26684-35.839l16.91129-34.02707a24.13159,24.13159,0,0,0,1.38329-3.41545l11.18989-35.12671A31.09567,31.09567,0,0,0,53.65232,3190.4l-20.88994-41.34881a41.85668,41.85668,0,0,1-2.75287-6.91722l-16.15893-54.20734A35.26112,35.26112,0,0,1,16.775,3060.8045l13.47265-24.30533a18.547,18.547,0,0,1,11.07774-8.87753h0a22.26908,22.26908,0,0,0,15.83852-23.02077l-3.01743-44.53844a72.6385,72.6385,0,0,0-3.5998-18.18282l-17.31891-51.64324a16.09462,16.09462,0,0,0-3.73117-6.12408l-10.8328-11.10393A8.42422,8.42422,0,0,1,18.107,2861.944l4.88691-6.16519a13.48868,13.48868,0,0,1,8.21536-4.92955l7.995-1.413a21.74966,21.74966,0,0,0,17.57761-18.42586l4.82075-33.06936a157.21608,157.21608,0,0,0-7.15375-74.55695l-19.46966-55.63754L15.30114,2611.269a91.40816,91.40816,0,0,1-1.4498-55.52016l1.743-5.99807a61.48832,61.48832,0,0,1,12.56527-23.13044l21.20671-24.45466a63.50583,63.50583,0,0,0,15.297-45.32518l-3.51884-59.51392a20.04239,20.04239,0,0,0-10.90579-16.89544,30.74869,30.74869,0,0,1-15.25956-15.66479c-5.85311-13.99909-9.99684-25.45476-17.61543-46.301a131.10418,131.10418,0,0,1-7.30855-57.88357c2.62777-26.57491,7.77634-63.04312,17.11983-79.80345a35.239,35.239,0,0,1,8.04537-9.82154,41.57478,41.57478,0,0,0,15.40647-33.96748l-1.37551-30.54885a39.83634,39.83634,0,0,0-9.36644-23.97256l-8.98087-10.5865a19.32228,19.32228,0,0,0-4.05288-3.60468l-8.49014-5.63111a32.74588,32.74588,0,0,1-10.94431-12.20516c-5.253-10.10716-11.39466-27.75625-1.70312-43.6508.57361-.94076,3.98958-2.8956,6.91834-4.96674a34.60056,34.60056,0,0,1,12.7423-5.52992l16.95866-3.63833a25.01616,25.01616,0,0,0,19.49755-22.83634c1.75769-24.71747,4.02272-66.07567.46328-77.02125-2.80462-8.62444-13.16856-12.08319-18.77643-13.34654a20.42171,20.42171,0,0,1-7.49119-3.43385l-7.15665-5.19617a17.47328,17.47328,0,0,1-4.87072-22.57255l2.92985-5.25556a21.61924,21.61924,0,0,1,15.32008-10.87717l4.40074-.72756A20.89476,20.89476,0,0,0,63.3866,1805.6433a13.17132,13.17132,0,0,0-4.99492-7.84008c-5.8561-4.00178-10.38881-4.47287-18.09036-7.458a33.90045,33.90045,0,0,1-15.17025-11.74594L10.79159,1758.813a19.12035,19.12035,0,0,1-3.11544-15.50039l4.94715-21.41076a22.76874,22.76874,0,0,1,8.39508-13.03677l10.16569-7.70182a5.928,5.928,0,0,0,.36455-9.15028l-2.61987-2.33517a39.25693,39.25693,0,0,1-12.879-32.41028l.17482-2.19517c1.33266-16.7337,10.9505-31.25783,26.8245-37.71493l1.30778-.2666a4.51446,4.51446,0,0,0,2.32861-1.27577h0l5.85312-5.99963c4.74914-10.34452-2.71825-16.58311-9.97688-25.26346L19.3709,1556.81891l0,0A55.98886,55.98886,0,0,1,1.2456,1516.74534L.03318,1465.17079a120.1483,120.1483,0,0,1,.551-14.65719l3.7107-37.49232a87.2093,87.2093,0,0,1,16.79442-43.51435l23.55906-31.61283a66.12412,66.12412,0,0,0,12.53086-47.36143l-4.19583-34.88457a22.72187,22.72187,0,0,0-10.0939-16.28869c-5.97572-3.91986-13.12026-10.56357-14.7389-20.5185-1.95-11.99291.91564-13.30009,2.0034-21.35209a10.406,10.406,0,0,1,7.1429-8.58626h0a27.90981,27.90981,0,0,0,19.06167-22.18894l3.22018-19.39207a20.88869,20.88869,0,0,0-5.59073-17.989l-7.30257-7.48535-7.8203-6.012a21.43671,21.43671,0,0,1-7.28977-23.2701l.63606-2.06461a18.28514,18.28514,0,0,1,2.3721-4.92862l2.77469-4.063a84.34393,84.34393,0,0,0,14.462-52.47874c-1.04748-17.82365-2.29776-39.09857-2.86979-48.83361a8.063,8.063,0,0,0-5.31428-7.14866l-.27651-.1a41.01163,41.01163,0,0,1-26.6605-40.38414l1.04-25.5687a61.94224,61.94224,0,0,1,9.02847-29.81L39.0284,857.15537a101.27863,101.27863,0,0,0,13.6893-37.45144l6.51961-42.32433a20.98354,20.98354,0,0,0-9.2-20.81219l-7.254-4.6961L30.6459,746.2942a29.79708,29.79708,0,0,1-17.13449-25.53843L12.2155,696.84553a15.464,15.464,0,0,1,10.49628-15.60476l4.285-1.39754a24.17819,24.17819,0,0,0,10.3553-6.70491l6.66332-7.30113a45.66967,45.66967,0,0,0,9.88175-43.78127l-5.49986-18.39606a175.59954,175.59954,0,0,1-6.94745-38.36968L37.44928,506.5133a64.46461,64.46461,0,0,1,.75949-15.161l1.24522-7.3392a21.07617,21.07617,0,0,1,7.783-13.11321l1.86843-1.45555a29.40644,29.40644,0,0,0,9.71421-32.23644l-6.071-18.66894a30.44213,30.44213,0,0,0-11.29178-15.43253l-11.4421-8.11971a44.22248,44.22248,0,0,1-18.448-36.09046v-2.58649c0-13.19646,7.25487-25.41008,18.9007-31.0357,10.60877-5.12466,23.53441-15.874,32.80184-38.3725,18.53487-44.99707,1.951-70.99538.97552-73.99518-.30848-.94862-3.90208-17.99883-38.04526-49.99675C-27.07762,112.98,74,68.91577,74,68.91577s177.62038-89.82414,380.97485-41.778A413.63705,413.63705,0,0,0,519.18,37.2411c64.57882,4.836,194.38882,16.4256,194.38793,31.45073l3.48188,3.59034a23.36376,23.36376,0,0,1,5.58432,9.6588c2.14927,7.26166,7.31252,20.41753,18.088,28.75086,1.41729,1.09608,9.00458,3.75432,16.341,7.83377a33.75644,33.75644,0,0,1,17.08472,30.42413l-.21526,8.43485a7.03762,7.03762,0,0,1-8.91935,6.74947l-2.62214-.77252a16.38229,16.38229,0,0,0-20.33933,11.68584L736.339,195.86114c-2.12548,7.74395,3.42265,15.47536,11.226,15.63958a18.16021,18.16021,0,0,1,2.855.19111c15.59735,4.0208,8.6322,25.16367,14.08871,43.47449a49.37724,49.37724,0,0,1-3.24767,35.84136l-16.812,34.02928a24.21041,24.21041,0,0,0-1.37482,3.41457l-11.12454,35.1301a31.2664,31.2664,0,0,0,1.84643,23.42277l20.76095,41.33886a42.14974,42.14974,0,0,1,2.74632,6.9413l16.06081,54.19988a35.45076,35.45076,0,0,1-2.90722,27.12389l-13.39356,24.30691a18.45915,18.45915,0,0,1-11.0127,8.8781h0a22.26473,22.26473,0,0,0-15.74554,23.02226l2.99971,44.54135a73.02477,73.02477,0,0,0,3.57868,18.184l17.21722,51.6466a16.11285,16.11285,0,0,0,3.70927,6.12448l10.7692,11.10465a8.46238,8.46238,0,0,1,.55357,11.0651l-4.85821,6.16558a13.39569,13.39569,0,0,1-8.16714,4.92988l-7.9481,1.413A21.69437,21.69437,0,0,0,730.685,746.41736l-4.79244,33.07151a158.113,158.113,0,0,0,7.11175,74.56181l19.35535,55.64116,19.56255,56.48129a91.9331,91.9331,0,0,1,1.44129,55.52376l-1.73281,5.99847a61.60438,61.60438,0,0,1-12.4915,23.13194l-21.08221,24.45625a63.75084,63.75084,0,0,0-15.20723,45.32814l3.49818,59.51779a20.05109,20.05109,0,0,0,10.84176,16.89654,30.6616,30.6616,0,0,1,15.17,15.66582c5.81876,14,9.93816,25.45641,17.512,46.304a131.83988,131.83988,0,0,1,7.26564,57.88734c-2.61234,26.57664-7.73069,63.04723-17.01932,79.80865a35.20816,35.20816,0,0,1-7.99814,9.82218,41.68157,41.68157,0,0,0-15.316,33.96969l1.36744,30.55083a39.97308,39.97308,0,0,0,9.31145,23.97413l8.92815,10.58718a19.24641,19.24641,0,0,0,4.02908,3.60492l8.44029,5.63148a32.68234,32.68234,0,0,1,10.88007,12.20594c5.22216,10.10783,11.32776,27.75806,1.69312,43.65365-.57025.94082-3.96616,2.89579-6.87773,4.96706a34.29356,34.29356,0,0,1-12.66749,5.53029l-16.8591,3.63856a24.97362,24.97362,0,0,0-19.38308,22.83783c-1.74737,24.71908-3.99911,66.08-.46057,77.02626,2.78816,8.625,13.09126,12.084,18.6662,13.34741a20.24576,20.24576,0,0,1,7.44722,3.43408l7.11463,5.1965a17.54113,17.54113,0,0,1,4.84212,22.574l-2.91265,5.25591a21.49737,21.49737,0,0,1-15.23013,10.87787l-4.37491.72761a20.89353,20.89353,0,0,0-16.6389,25.746,13.18032,13.18032,0,0,0,4.96559,7.84059c5.82173,4.002,10.32783,4.47316,17.98416,7.4585A33.729,33.729,0,0,1,762.15,1798.897l14.2553,19.78755a19.21312,19.21312,0,0,1,3.09715,15.50139l-4.91811,21.41215a22.78346,22.78346,0,0,1-8.3458,13.03762l-10.09237,7.69194a5.95537,5.95537,0,0,0-.36576,9.17049l2.59421,2.3261a39.38034,39.38034,0,0,1,12.8034,32.41239l-.1738,2.19531c-1.32484,16.73478-10.88621,31.25986-26.667,37.71739l-1.3001.26662a4.48029,4.48029,0,0,0-2.31494,1.27585h0l-5.81875,6c-4.72127,10.34519,2.70229,16.58418,9.91831,25.2651l23.05463,27.73488,0,0a56.13894,56.13894,0,0,1,18.01887,40.07616l1.20535,51.58a120.83612,120.83612,0,0,1-.54763,14.65435l-3.68908,37.49646A87.51955,87.51955,0,0,1,766.168,2208.016l-23.42075,31.61489A66.42149,66.42149,0,0,0,730.29,2286.99541l4.1712,34.88685A22.74065,22.74065,0,0,0,744.4958,2338.172c5.94063,3.92011,13.04323,10.56426,14.65237,20.51983,1.93857,11.99369-.91027,13.301-1.99164,21.35348a10.39086,10.39086,0,0,1-7.101,8.58682h0a27.86255,27.86255,0,0,0-18.94976,22.19038l-3.20127,19.39334a20.97076,20.97076,0,0,0,5.5579,17.99014l7.2597,7.48583,7.77439,6.01241a21.51313,21.51313,0,0,1,7.247,23.27161l-.63233,2.06474a18.33381,18.33381,0,0,1-2.35817,4.92895l-2.7584,4.06331a84.72344,84.72344,0,0,0-14.37715,52.48216c1.04157,17.82893,2.28485,39.111,2.85334,48.84354a8.12462,8.12462,0,0,0,5.338,7.1625l.21959.07992c16.479,5.99744,27.23193,22.38279,26.504,40.38677l-1.03389,25.57037A62.21316,62.21316,0,0,1,760.523,2700.37l-12.18876,20.03092a101.66778,101.66778,0,0,0-13.60893,37.45388l-6.48134,42.32709a21.03523,21.03523,0,0,0,9.146,20.81353l7.21135,4.69641,12.06621,5.57748a29.80165,29.80165,0,0,1,17.0339,25.54009l1.28831,23.9118A15.46382,15.46382,0,0,1,764.555,2896.327l-4.25986,1.39763a24.02225,24.02225,0,0,0-10.29451,6.70535l-6.6242,7.30161a45.87394,45.87394,0,0,0-9.82374,43.78412l5.46757,18.39725a176.55346,176.55346,0,0,1,6.90666,38.37218l3.9771,58.78071a64.84975,64.84975,0,0,1-.75521,15.163l-1.23773,7.33864a21.10119,21.10119,0,0,1-7.73733,13.11406l-1.85746,1.45564a29.51374,29.51374,0,0,0-9.65718,32.23855l6.03539,18.67015a30.43357,30.43357,0,0,0,11.2255,15.43353l11.37492,8.12024a44.30825,44.30825,0,0,1,18.33968,36.09281v2.58666c0,13.19732-7.21227,25.41173-18.78973,31.03772-10.54649,5.125-23.39624,15.875-32.60927,38.375-18.42606,45-1.93958,71-.96979,74,.30667.94868,3.87917,18,37.82191,50,52.96437,49.93292-47.51984,94-47.51984,94s-146.00118,70-320.00118,72S74,3508.69183,74,3508.69183Z" style="fill:#c5d5de"/><path d="M74,3495.69183l-3.50244-3.5901a23.33026,23.33026,0,0,1-5.6173-9.65818c-2.162-7.26118-7.3557-20.41619-18.19481-28.749-1.42566-1.096-9.05776-3.75407-16.43752-7.83326a33.71408,33.71408,0,0,1-17.18562-30.42215l.21654-8.4343a7.07117,7.07117,0,0,1,8.972-6.749l2.63763.77247a16.48991,16.48991,0,0,0,20.45944-11.68508l5.74648-20.81241a12.24443,12.24443,0,0,0-11.29232-15.63856,18.37466,18.37466,0,0,1-2.87185-.19111c-15.68946-4.02053-8.68317-25.162-14.1719-43.47165a49.108,49.108,0,0,1,3.26684-35.839l16.91129-34.02707a24.13159,24.13159,0,0,0,1.38329-3.41545l11.18989-35.12671A31.09567,31.09567,0,0,0,53.65232,3177.4l-20.88994-41.34881a41.85668,41.85668,0,0,1-2.75287-6.91722l-16.15893-54.20734A35.26112,35.26112,0,0,1,16.775,3047.8045l13.47265-24.30533a18.547,18.547,0,0,1,11.07774-8.87753h0a22.26908,22.26908,0,0,0,15.83852-23.02077l-3.01743-44.53844a72.6385,72.6385,0,0,0-3.5998-18.18282l-17.31891-51.64324a16.09462,16.09462,0,0,0-3.73117-6.12408l-10.8328-11.10393A8.42422,8.42422,0,0,1,18.107,2848.944l4.88691-6.16519a13.48868,13.48868,0,0,1,8.21536-4.92955l7.995-1.413a21.74966,21.74966,0,0,0,17.57761-18.42586l4.82075-33.06936a157.21608,157.21608,0,0,0-7.15375-74.55695l-19.46966-55.63754L15.30114,2598.269a91.40816,91.40816,0,0,1-1.4498-55.52016l1.743-5.99807a61.48832,61.48832,0,0,1,12.56527-23.13044l21.20671-24.45466a63.50583,63.50583,0,0,0,15.297-45.32518l-3.51884-59.51392a20.04239,20.04239,0,0,0-10.90579-16.89544,30.74869,30.74869,0,0,1-15.25956-15.66479c-5.85311-13.99909-9.99684-25.45476-17.61543-46.301a131.10418,131.10418,0,0,1-7.30855-57.88357c2.62777-26.57491,7.77634-63.04312,17.11983-79.80345a35.239,35.239,0,0,1,8.04537-9.82154,41.57478,41.57478,0,0,0,15.40647-33.96748l-1.37551-30.54885a39.83634,39.83634,0,0,0-9.36644-23.97256l-8.98087-10.5865a19.32228,19.32228,0,0,0-4.05288-3.60468l-8.49014-5.63111a32.74588,32.74588,0,0,1-10.94431-12.20516c-5.253-10.10716-11.39466-27.75625-1.70312-43.6508.57361-.94076,3.98958-2.8956,6.91834-4.96674a34.60056,34.60056,0,0,1,12.7423-5.52992l16.95866-3.63833a25.01616,25.01616,0,0,0,19.49755-22.83634c1.75769-24.71747,4.02272-66.07567.46328-77.02125-2.80462-8.62444-13.16856-12.08319-18.77643-13.34654a20.42171,20.42171,0,0,1-7.49119-3.43385l-7.15665-5.19617a17.47328,17.47328,0,0,1-4.87072-22.57255l2.92985-5.25556a21.61924,21.61924,0,0,1,15.32008-10.87717l4.40074-.72756A20.89476,20.89476,0,0,0,63.3866,1792.6433a13.17132,13.17132,0,0,0-4.99492-7.84008c-5.8561-4.00178-10.38881-4.47287-18.09036-7.458a33.90045,33.90045,0,0,1-15.17025-11.74594L10.79159,1745.813a19.12035,19.12035,0,0,1-3.11544-15.50039l4.94715-21.41076a22.76874,22.76874,0,0,1,8.39508-13.03677l10.16569-7.70182a5.928,5.928,0,0,0,.36455-9.15028l-2.61987-2.33517a39.25693,39.25693,0,0,1-12.879-32.41028l.17482-2.19517c1.33266-16.7337,10.9505-31.25783,26.8245-37.71493l1.30778-.2666a4.51446,4.51446,0,0,0,2.32861-1.27577h0l5.85312-5.99963c4.74914-10.34452-2.71825-16.58311-9.97688-25.26346L19.3709,1543.81891l0,0A55.98886,55.98886,0,0,1,1.2456,1503.74534L.03318,1452.17079a120.1483,120.1483,0,0,1,.551-14.65719l3.7107-37.49232a87.2093,87.2093,0,0,1,16.79442-43.51435l23.55906-31.61283a66.12412,66.12412,0,0,0,12.53086-47.36143l-4.19583-34.88457a22.72187,22.72187,0,0,0-10.0939-16.28869c-5.97572-3.91986-13.12026-10.56357-14.7389-20.5185-1.95-11.99291.91564-13.30009,2.0034-21.35209a10.406,10.406,0,0,1,7.1429-8.58626h0a27.90981,27.90981,0,0,0,19.06167-22.18894l3.22018-19.39207a20.88869,20.88869,0,0,0-5.59073-17.989l-7.30257-7.48535-7.8203-6.012a21.43671,21.43671,0,0,1-7.28977-23.2701l.63606-2.06461a18.28514,18.28514,0,0,1,2.3721-4.92862l2.77469-4.063a84.34393,84.34393,0,0,0,14.462-52.47874c-1.04748-17.82365-2.29776-39.09857-2.86979-48.83361a8.063,8.063,0,0,0-5.31428-7.14866l-.27651-.1a41.01163,41.01163,0,0,1-26.6605-40.38414l1.04-25.5687a61.94224,61.94224,0,0,1,9.02847-29.81L39.0284,844.15537a101.27863,101.27863,0,0,0,13.6893-37.45144l6.51961-42.32433a20.98354,20.98354,0,0,0-9.2-20.81219l-7.254-4.6961L30.6459,733.2942a29.79708,29.79708,0,0,1-17.13449-25.53843L12.2155,683.84553a15.464,15.464,0,0,1,10.49628-15.60476l4.285-1.39754a24.17819,24.17819,0,0,0,10.3553-6.70491l6.66332-7.30113a45.66967,45.66967,0,0,0,9.88175-43.78127l-5.49986-18.39606a175.59954,175.59954,0,0,1-6.94745-38.36968L37.44928,493.5133a64.46461,64.46461,0,0,1,.75949-15.161l1.24522-7.3392a21.07617,21.07617,0,0,1,7.783-13.11321l1.86843-1.45555a29.40644,29.40644,0,0,0,9.71421-32.23644l-6.071-18.66894a30.44213,30.44213,0,0,0-11.29178-15.43253l-11.4421-8.11971a44.22248,44.22248,0,0,1-18.448-36.09046v-2.58649c0-13.19646,7.25487-25.41008,18.9007-31.0357,10.60877-5.12466,23.53441-15.874,32.80184-38.3725,18.53487-44.99707,1.951-70.99538.97552-73.99518-.30848-.94862-3.90208-17.99883-38.04526-49.99675C-27.07762,99.98,74,55.91577,74,55.91577s177.62038-89.82414,380.97485-41.778A413.63705,413.63705,0,0,0,519.18,24.2411c64.57882,4.836,194.38882,16.4256,194.38793,31.45073l3.48188,3.59034a23.36376,23.36376,0,0,1,5.58432,9.6588c2.14927,7.26166,7.31252,20.41753,18.088,28.75086,1.41729,1.09608,9.00458,3.75432,16.341,7.83377a33.75644,33.75644,0,0,1,17.08472,30.42413l-.21526,8.43485a7.03762,7.03762,0,0,1-8.91935,6.74947l-2.62214-.77252a16.38229,16.38229,0,0,0-20.33933,11.68584L736.339,182.86114c-2.12548,7.74395,3.42265,15.47536,11.226,15.63958a18.16021,18.16021,0,0,1,2.855.19111c15.59735,4.0208,8.6322,25.16367,14.08871,43.47449a49.37724,49.37724,0,0,1-3.24767,35.84136l-16.812,34.02928a24.21041,24.21041,0,0,0-1.37482,3.41457l-11.12454,35.1301a31.2664,31.2664,0,0,0,1.84643,23.42277l20.76095,41.33886a42.14974,42.14974,0,0,1,2.74632,6.9413l16.06081,54.19988a35.45076,35.45076,0,0,1-2.90722,27.12389l-13.39356,24.30691a18.45915,18.45915,0,0,1-11.0127,8.8781h0a22.26473,22.26473,0,0,0-15.74554,23.02226l2.99971,44.54135a73.02477,73.02477,0,0,0,3.57868,18.184l17.21722,51.6466a16.11285,16.11285,0,0,0,3.70927,6.12448l10.7692,11.10465a8.46238,8.46238,0,0,1,.55357,11.0651l-4.85821,6.16558a13.39569,13.39569,0,0,1-8.16714,4.92988l-7.9481,1.413A21.69437,21.69437,0,0,0,730.685,733.41736l-4.79244,33.07151a158.113,158.113,0,0,0,7.11175,74.56181l19.35535,55.64116,19.56255,56.48129a91.9331,91.9331,0,0,1,1.44129,55.52376l-1.73281,5.99847a61.60438,61.60438,0,0,1-12.4915,23.13194l-21.08221,24.45625a63.75084,63.75084,0,0,0-15.20723,45.32814l3.49818,59.51779a20.05109,20.05109,0,0,0,10.84176,16.89654,30.6616,30.6616,0,0,1,15.17,15.66582c5.81876,14,9.93816,25.45641,17.512,46.304a131.83988,131.83988,0,0,1,7.26564,57.88734c-2.61234,26.57664-7.73069,63.04723-17.01932,79.80865a35.20816,35.20816,0,0,1-7.99814,9.82218,41.68157,41.68157,0,0,0-15.316,33.96969l1.36744,30.55083a39.97308,39.97308,0,0,0,9.31145,23.97413l8.92815,10.58718a19.24641,19.24641,0,0,0,4.02908,3.60492l8.44029,5.63148a32.68234,32.68234,0,0,1,10.88007,12.20594c5.22216,10.10783,11.32776,27.75806,1.69312,43.65365-.57025.94082-3.96616,2.89579-6.87773,4.96706a34.29356,34.29356,0,0,1-12.66749,5.53029l-16.8591,3.63856a24.97362,24.97362,0,0,0-19.38308,22.83783c-1.74737,24.71908-3.99911,66.08-.46057,77.02626,2.78816,8.625,13.09126,12.084,18.6662,13.34741a20.24576,20.24576,0,0,1,7.44722,3.43408l7.11463,5.1965a17.54113,17.54113,0,0,1,4.84212,22.574l-2.91265,5.25591a21.49737,21.49737,0,0,1-15.23013,10.87787l-4.37491.72761a20.89353,20.89353,0,0,0-16.6389,25.746,13.18032,13.18032,0,0,0,4.96559,7.84059c5.82173,4.002,10.32783,4.47316,17.98416,7.4585A33.729,33.729,0,0,1,762.15,1785.897l14.2553,19.78755a19.21312,19.21312,0,0,1,3.09715,15.50139l-4.91811,21.41215a22.78346,22.78346,0,0,1-8.3458,13.03762l-10.09237,7.69194a5.95537,5.95537,0,0,0-.36576,9.17049l2.59421,2.3261a39.38034,39.38034,0,0,1,12.8034,32.41239l-.1738,2.19531c-1.32484,16.73478-10.88621,31.25986-26.667,37.71739l-1.3001.26662a4.48029,4.48029,0,0,0-2.31494,1.27585h0l-5.81875,6c-4.72127,10.34519,2.70229,16.58418,9.91831,25.2651l23.05463,27.73488,0,0a56.13894,56.13894,0,0,1,18.01887,40.07616l1.20535,51.58a120.83612,120.83612,0,0,1-.54763,14.65435l-3.68908,37.49646A87.51955,87.51955,0,0,1,766.168,2195.016l-23.42075,31.61489A66.42149,66.42149,0,0,0,730.29,2273.99541l4.1712,34.88685A22.74065,22.74065,0,0,0,744.4958,2325.172c5.94063,3.92011,13.04323,10.56426,14.65237,20.51983,1.93857,11.99369-.91027,13.301-1.99164,21.35348a10.39086,10.39086,0,0,1-7.101,8.58682h0a27.86255,27.86255,0,0,0-18.94976,22.19038l-3.20127,19.39334a20.97076,20.97076,0,0,0,5.5579,17.99014l7.2597,7.48583,7.77439,6.01241a21.51313,21.51313,0,0,1,7.247,23.27161l-.63233,2.06474a18.33381,18.33381,0,0,1-2.35817,4.92895l-2.7584,4.06331a84.72344,84.72344,0,0,0-14.37715,52.48216c1.04157,17.82893,2.28485,39.111,2.85334,48.84354a8.12462,8.12462,0,0,0,5.338,7.1625l.21959.07992c16.479,5.99744,27.23193,22.38279,26.504,40.38677l-1.03389,25.57037A62.21316,62.21316,0,0,1,760.523,2687.37l-12.18876,20.03092a101.66778,101.66778,0,0,0-13.60893,37.45388l-6.48134,42.32709a21.03523,21.03523,0,0,0,9.146,20.81353l7.21135,4.69641,12.06621,5.57748a29.80165,29.80165,0,0,1,17.0339,25.54009l1.28831,23.9118A15.46382,15.46382,0,0,1,764.555,2883.327l-4.25986,1.39763a24.02225,24.02225,0,0,0-10.29451,6.70535l-6.6242,7.30161a45.87394,45.87394,0,0,0-9.82374,43.78412l5.46757,18.39725a176.55346,176.55346,0,0,1,6.90666,38.37218l3.9771,58.78071a64.84975,64.84975,0,0,1-.75521,15.163l-1.23773,7.33864a21.10119,21.10119,0,0,1-7.73733,13.11406l-1.85746,1.45564a29.51374,29.51374,0,0,0-9.65718,32.23855l6.03539,18.67015a30.43357,30.43357,0,0,0,11.2255,15.43353l11.37492,8.12024a44.30825,44.30825,0,0,1,18.33968,36.09281v2.58666c0,13.19732-7.21227,25.41173-18.78973,31.03772-10.54649,5.125-23.39624,15.875-32.60927,38.375-18.42606,45-1.93958,71-.96979,74,.30667.94868,3.87917,18,37.82191,50,52.96437,49.93292-47.51984,94-47.51984,94s-146.00118,70-320.00118,72S74,3495.69183,74,3495.69183Z" style="fill:#f2f3f7"/></g></g></svg>