<svg preserveAspectRatio="none" xmlns="http://www.w3.org/2000/svg" viewBox="0 0 787.13352 3580.73166"><title>TOP</title><g id="Layer_2" data-name="Layer 2"><g id="Top"><path d="M786.55673,2127.00189l-3.69,37.5a87.51357,87.51357,0,0,1-16.7,43.51l-8.06,10.87989-.3.40014-15.06,20.33985a66.44619,66.44619,0,0,0-12.46,47.3601l4.17005,34.8899a22.77,22.77,0,0,0,10.04,16.29,35.40069,35.40069,0,0,1,12.02,12.66993v.57007l.31.03,2.96.22.02,14.06005c.01,5.98-1.83,8.19995-2.65,14.32007a9.95147,9.95147,0,0,1-.63,2.43994,6.265,6.265,0,0,1-.32.75,10.21825,10.21825,0,0,1-6.15,5.39991,27.13532,27.13532,0,0,0-12.53,8.32006,28.39433,28.39433,0,0,0-6.42005,13.86988l-3.19995,19.39013a20.91718,20.91718,0,0,0,5.56,17.99l7.26,7.49,7.77,6.01a21.37827,21.37827,0,0,1,2.7,2.5l4.21.47.33.04.94.1001.01,13.37988v.89014l-1.09-.14014-.33-.04-.08,7.87988-.08.26025a18.18523,18.18523,0,0,1-2.35,4.92993l-2.76,4.05982a84.73819,84.73819,0,0,0-14.38,52.48022c1.04,17.82984,2.29,39.10987,2.85,48.84986a8.12649,8.12649,0,0,0,5.34,7.16015l.22.07984a39.25114,39.25114,0,0,1,9.94995,5.3601,2.1822,2.1822,0,0,1,.35.27,41.45394,41.45394,0,0,1,16.21,34.76l-1.04,25.57007a62.30618,62.30618,0,0,1-8.97,29.80982l-7.18,11.79-.38.63012-4.63,7.60987a101.77735,101.77735,0,0,0-13.61,37.44995l-6.48,42.33007a21.02489,21.02489,0,0,0,9.14,20.81006l7.21,4.7,7.23,3.33985.39.18017,4.45,2.06006a29.78408,29.78408,0,0,1,17.03,25.54l.67,12.43994.62,11.47c.02.29.02.57007.02.86011v.10986a15.42611,15.42611,0,0,1-10.45,14.64014l-4.26,1.38989a24.04742,24.04742,0,0,0-8.79,5.17994c-.14.12988-.27.26-.41.39013-.38.36988-.74.75-1.1,1.13989l-6.62,7.30005a45.854,45.854,0,0,0-9.82,43.78l5.46,18.39991a176.41536,176.41536,0,0,1,6.91,38.36987l3.21,47.41015.77,11.37012c.08,1.17993.12994,2.35986.12994,3.5398l.01,1.74a63.13455,63.13455,0,0,1-.9,9.89013l-1.24,7.33985a21.10187,21.10187,0,0,1-7.73,13.1101l-1.86,1.46a29.50483,29.50483,0,0,0-9.66,32.23l6.04,18.67016a30.40881,30.40881,0,0,0,11.22,15.43994l11.38,8.11988a43.85937,43.85937,0,0,1,16.6,23.7l1.74-.0398c-.05.30982-.03,7.14991-.02,11.07984.01.14013.01.27.01.40014.01,1.37989.01,2.30982.01,2.30982v1.23c0,13.19018-7.21,25.41015-18.79,31.04-10.55,5.12011-23.4,15.87011-32.61,38.37011-18.43,45-1.94,71-.97,74,.31.95,3.88,18,37.82,50a55.66767,55.66767,0,0,1,11.28,14.27l4.09,1.05v16.5a.52682.52682,0,0,1-.01.12989c-2.04,35.37011-62.88,62.05-62.88,62.05s-146,70-320,72-319.57-72-319.57-72l-3.5-3.59008a23.46309,23.46309,0,0,1-5.62-9.65992c-2.16-7.26-7.35-20.41015-18.19-28.75-1.43-1.09008-9.06-3.75-16.44-7.83007a33.63385,33.63385,0,0,1-17.18-29.06983c-.01-.15014-.01-.3-.01-.45019v-12.62989h1.09a6.98078,6.98078,0,0,1,8.1-3.46l2.64.77979a16.4941,16.4941,0,0,0,20.46-11.68994l5.75-20.81006a12.24761,12.24761,0,0,0-11.29-15.63989,18.92044,18.92044,0,0,1-2.88-.18995c-15.69-4.02-8.68-25.15991-14.17-43.47a47.4669,47.4669,0,0,1-1.96-15.12011l-.01-12.36988,1.6,1.36988a50.43211,50.43211,0,0,1,3.64-9.72l16.91-34.03a23.39048,23.39048,0,0,0,1.38-3.40992l11.19-35.13012a31.10523,31.10523,0,0,0-1.85-23.41992l-20.89-41.3501a40.905,40.905,0,0,1-2.76-6.91992l-16.16-54.21a35.30489,35.30489,0,0,1-1.31006-13.37011v-.00977l-.15-10.17016.18.32006,2.02.87012a35.83542,35.83542,0,0,1,2.19-4.76025l13.47-24.29981a18.58359,18.58359,0,0,1,11.08-8.88012,22.22859,22.22859,0,0,0,15.89-21.47c0-.52-.02-1.03-.05-1.55005l-3.02-44.5398a72.55088,72.55088,0,0,0-3.6-18.18017l-17.32-51.64991a16.07366,16.07366,0,0,0-3.73-6.12011l-10.83-11.09986a8.38725,8.38725,0,0,1-2.31-6.81006v-13.04l6.5,2.79.14-.17016a13.44294,13.44294,0,0,1,8.21-4.92993l8-1.41993a21.75516,21.75516,0,0,0,17.57995-18.41992l4.82-33.07007a157.32314,157.32314,0,0,0-7.16-74.56005l-19.47-55.6399-19.68-56.47a91.5326,91.5326,0,0,1-1.45-55.52l1.75-6a61.44978,61.44978,0,0,1,12.56-23.13012l21.21-24.46a63.51357,63.51357,0,0,0,15.3-45.32007l-3.52-59.52a20.04552,20.04552,0,0,0-10.91-16.8899,30.76293,30.76293,0,0,1-15.26-15.66992c-5.85-13.99-9.99-25.45-17.61-46.3a131.05228,131.05228,0,0,1-7.31-57.87988c2.63-26.58008,7.77-63.04,17.12-79.80029a35.09711,35.09711,0,0,1,8.04-9.82984,41.54885,41.54885,0,0,0,15.41-33.96l-1.38-30.55a39.74125,39.74125,0,0,0-9.36-23.97l-8.98-10.59008a19.64241,19.64241,0,0,0-4.06-3.60987l-8.49-5.63012a32.72974,32.72974,0,0,1-10.94-12.2c-3.17-6.10986-6.67-14.96-6.8-24.52l.01-1.72v-.04l.1-14.82007,2.71,1.87011a33.72052,33.72052,0,0,1,2.28-4.42c.56994-.94006,3.99-2.9,6.92-4.97a34.59408,34.59408,0,0,1,12.74-5.53l16.96-3.64a24.99687,24.99687,0,0,0,19.49-22.83c1.76-24.72009,4.03-66.08.47-77.02-2.81-8.63-13.17-12.09-18.78-13.35a20.36327,20.36327,0,0,1-7.49-3.43994l-7.16-5.19006a17.30191,17.30191,0,0,1-7.07-14.29h-.01v-13.0199l4.56006.52991.58-1.04993a21.63667,21.63667,0,0,1,15.32-10.88012l4.4-.72a20.90244,20.90244,0,0,0,16.74-25.75,13.16767,13.16767,0,0,0-5-7.84c-5.85-4-10.38-4.47-18.09-7.46008a33.921,33.921,0,0,1-15.17-11.74l-14.34-19.78992a19.05042,19.05042,0,0,1-3.56994-12.09v-.17l-.03-12.31995,2.53.25,2.91-12.58007a22.76068,22.76068,0,0,1,8.39-13.04l10.17-7.69995a5.92915,5.92915,0,0,0,.36-9.14991l-2.62-2.33008a39.28137,39.28137,0,0,1-12.88-32.41l.18-2.19995c1.33-16.7301,10.95-31.26,26.82-37.71008l1.31-.27a4.49265,4.49265,0,0,0,2.33-1.27991l5.85-6c4.75-10.34-2.72-16.58-9.98-25.26l-23.19-27.73a55.33593,55.33593,0,0,1-13.12-18.11,56.44835,56.44835,0,0,1-5-21.97l-1.21-51.57007a119.60448,119.60448,0,0,1,.55-14.65991l3.71-37.49011a87.1634,87.1634,0,0,1,16.79-43.50989l23.56-31.62011a66.11033,66.11033,0,0,0,12.53-47.36l-4.19-34.88a22.71609,22.71609,0,0,0-10.1-16.29c-5.97-3.91993-13.12-10.57-14.74-20.52a38.11584,38.11584,0,0,1-.61005-8.59986h-.00994v-12.94006l2.53.89c.03-.23.07-.46.1-.69995a10.39017,10.39017,0,0,1,7.13995-8.59008,27.37591,27.37591,0,0,0,12.61005-8.32,28.43692,28.43692,0,0,0,6.45-13.87l3.22-19.39a20.88538,20.88538,0,0,0-5.59-17.99l-7.3-7.4801-7.82-6.0199a21.29969,21.29969,0,0,1-8.24-16.5v-13.87l4.01.04,2.72-3.99a84.35,84.35,0,0,0,14.46-52.4801c-1.04-17.83-2.29-39.1-2.87-48.84a8.05053,8.05053,0,0,0-5.31-7.14l-.28-.1a41.035,41.035,0,0,1-26.66-40.39l1.04-25.57a61.93689,61.93689,0,0,1,9.03-29.81l12.26-20.03a101.07344,101.07344,0,0,0,13.69-37.45l6.52-42.32a20.97464,20.97464,0,0,0-9.2-20.81l-7.25-4.7-12.13995-5.58a29.818,29.818,0,0,1-17.14-25.54l-1.29-23.91a14.9954,14.9954,0,0,1-.01-1.5l.18-14.8,5.7,3.18a14.8617,14.8617,0,0,1,4.63-2.48l4.28-1.4a24.30149,24.30149,0,0,0,10.36-6.7l6.66-7.3a45.693,45.693,0,0,0,9.88-43.79l-5.5-18.39a175.87472,175.87472,0,0,1-6.95-38.37l-4-58.78a64.70375,64.70375,0,0,1,.76-15.16l1.25-7.34a21.00956,21.00956,0,0,1,7.78-13.11l1.87-1.46a29.39607,29.39607,0,0,0,9.71-32.23l-6.07-18.67a30.46226,30.46226,0,0,0-11.29-15.44l-11.44-8.12a44.18643,44.18643,0,0,1-18.45-36.09v-1.09l.01-2.01.06-14.72,2.87,1.04a33.26127,33.26127,0,0,1,15.96-16.84c10.61-5.12,23.54-15.87,32.8-38.37,18.54-45,1.95-71,.98-74-.31-.94-3.9-17.99-38.05-49.99-10.83-10.15-15.29-20.06-15.5-29.41l.03-2.17.2-15.39,3.85.68c14.00994-28,59.22-47.71,59.22-47.71s177.62-89.82,380.98-41.77a413.525,413.525,0,0,0,64.2,10.1c64.58,4.84,194.39,16.42,194.39,31.45l3.48,3.59a23.40336,23.40336,0,0,1,5.59,9.66c2.15,7.26,7.31,20.42,18.09,28.75,1.41,1.1,9,3.75,16.34,7.83a33.77747,33.77747,0,0,1,17.08,30.43005l-.21,8.43a7.03635,7.03635,0,0,1-8.92,6.75l-2.63-.77a16.37027,16.37027,0,0,0-20.33,11.69l-5.72,20.81c-2.12,7.74,3.42,15.47,11.23,15.64a18.374,18.374,0,0,1,2.85.19c12.09,3.12,10.63,16.52,11.9,30.92l1.9,6.52a11.91547,11.91547,0,0,1,2.26,6.71l-.04,10.92c.03.73.04,1.47.04,2.2a50.18434,50.18434,0,0,1-5.22,22.05005l-16.81,34.03a24.524,24.524,0,0,0-1.37,3.41l-11.13,35.13a31.24622,31.24622,0,0,0,1.85,23.42l20.76,41.34a42.28855,42.28855,0,0,1,2.75,6.94l14.07,47.49,3.44,3.01v13.75c0,.1,0,.21-.01.31h-.13l-.03,3.12v.03a35.0811,35.0811,0,0,1-4.19,13.62l-13.39,24.3a18.45952,18.45952,0,0,1-11.02,8.88,22.20961,22.20961,0,0,0-15.79,21.46c0,.52.01,1.04.05,1.56l3,44.55a73.05684,73.05684,0,0,0,3.58,18.18l17.21,51.65a16.152,16.152,0,0,0,3.71,6.12l2.24,2.3a28.36614,28.36614,0,0,0,10.87,1.33v13.56a2.3,2.3,0,0,1-.02.37,8.32908,8.32908,0,0,1-1.76,4.61l-4.86,6.17a13.49732,13.49732,0,0,1-8.17005,4.93005l-7.94995,1.41a21.68554,21.68554,0,0,0-17.47,18.43l-4.79,33.07a157.93669,157.93669,0,0,0,7.11,74.56l19.35,55.64,17.80005,51.36.06995.23,1.7,4.89a90.89266,90.89266,0,0,1,3.61,13.89l1.41-.31v14.49a91.76841,91.76841,0,0,1-3.58,27.46l-1.74,5.99a62.54723,62.54723,0,0,1-2.09,6.05005,2.29338,2.29338,0,0,1-.1.23v.01a61.08973,61.08973,0,0,1-10.3,16.85l-21.08,24.44995a63.79622,63.79622,0,0,0-15.21,45.33l3.5,59.52a20.05721,20.05721,0,0,0,10.84,16.89,30.66849,30.66849,0,0,1,15.17,15.67c5.13,12.33,8.94,22.7,14.94,39.24.05.11.09.23.13.34q1.17,3.195,2.44,6.72009a131.82041,131.82041,0,0,1,7.27,57.8899c-1.97,20.1101-5.39,45.89-10.96,64.5-.05.18005-.1.35009-.15.53a77.57385,77.57385,0,0,1-5.91,14.78,35.07987,35.07987,0,0,1-8,9.82007,41.6968,41.6968,0,0,0-15.31,33.97l1.36,30.54993a39.97479,39.97479,0,0,0,9.32,23.9801l8.92,10.57984a19.45092,19.45092,0,0,0,4.03,3.6101l4.31,2.88.17.11,3.96,2.64a32.60326,32.60326,0,0,1,10.88,12.21,67.17713,67.17713,0,0,1,4.49,10.85l2.26-.08v15.65a34.90328,34.90328,0,0,1-5.05,17.23c-.57.93995-3.97,2.89991-6.88,4.97a33.87251,33.87251,0,0,1-10.32,4.93994,1.2081,1.2081,0,0,0-.18.05005c-.72.19995-1.44.38-2.17.54l-16.86,3.64a24.97059,24.97059,0,0,0-19.38,22.83c-1.75,24.72-4,66.08007-.46,77.03,2.79,8.63,13.09,12.08,18.66,13.35a20.322,20.322,0,0,1,7.45,3.43005l7.12,5.19995q.57.42,1.11.9l3.29-.37.19995-.02,2.42005-.27v14.54c-.01.41993-.04.83-.09,1.25a17.45477,17.45477,0,0,1-2.09,6.54l-.46.83-.21.38-2.24,4.05005a21.53631,21.53631,0,0,1-15.23,10.87989l-4.38.72a20.90714,20.90714,0,0,0-16.64,25.75,13.17354,13.17354,0,0,0,4.97,7.84008c5.82,4,10.33,4.47,17.98,7.46a33.64568,33.64568,0,0,1,14.87,11.47c.07.09008.14.19006.21.28l.01.01,12.54,17.4,5.29.22v12.05994l-.04.01a19.14983,19.14983,0,0,1-.44,5.58007l-4.92,21.41993a22.77477,22.77477,0,0,1-8.35,13.03l-4.79,3.66-.23.17-5.07,3.87a5.95747,5.95747,0,0,0-.37,9.17l2.6,2.32c.93.84,1.82,1.72,2.66,2.64.08.08.16.16993.23005.25a39.04072,39.04072,0,0,1,7.07,11.28l2.92.23.31,21.47c-.77,9.74-4.9,17.47-10.85,24.55005-.08.10987-.17.19995-.25.29993a42.01543,42.01543,0,0,1-16.13,11.61l-1.30005.26a4.46711,4.46711,0,0,0-2.31,1.28l-5.81995,6c-4.72,10.35,2.69995,16.58,9.91,25.27l15.04,18.08.25.30994,7.77,9.34008a55.21337,55.21337,0,0,1,13.05,18.10987,56.77787,56.77787,0,0,1,4.97,21.97021l1.2,51.57984A119.44987,119.44987,0,0,1,786.55673,2127.00189Z" style="fill:#c5d5de"/><path d="M74,3495.69183l-3.50244-3.5901a23.33026,23.33026,0,0,1-5.6173-9.65818c-2.162-7.26118-7.3557-20.41619-18.19481-28.749-1.42566-1.096-9.05776-3.75407-16.43752-7.83326a33.71408,33.71408,0,0,1-17.18562-30.42215l.21654-8.4343a7.07117,7.07117,0,0,1,8.972-6.749l2.63763.77247a16.48991,16.48991,0,0,0,20.45944-11.68508l5.74648-20.81241a12.24443,12.24443,0,0,0-11.29232-15.63856,18.37466,18.37466,0,0,1-2.87185-.19111c-15.68946-4.02053-8.68317-25.162-14.1719-43.47165a49.108,49.108,0,0,1,3.26684-35.839l16.91129-34.02707a24.13159,24.13159,0,0,0,1.38329-3.41545l11.18989-35.12671A31.09567,31.09567,0,0,0,53.65232,3177.4l-20.88994-41.34881a41.85668,41.85668,0,0,1-2.75287-6.91722l-16.15893-54.20734A35.26112,35.26112,0,0,1,16.775,3047.8045l13.47265-24.30533a18.547,18.547,0,0,1,11.07774-8.87753h0a22.26908,22.26908,0,0,0,15.83852-23.02077l-3.01743-44.53844a72.6385,72.6385,0,0,0-3.5998-18.18282l-17.31891-51.64324a16.09462,16.09462,0,0,0-3.73117-6.12408l-10.8328-11.10393A8.42422,8.42422,0,0,1,18.107,2848.944l4.88691-6.16519a13.48868,13.48868,0,0,1,8.21536-4.92955l7.995-1.413a21.74966,21.74966,0,0,0,17.57761-18.42586l4.82075-33.06936a157.21608,157.21608,0,0,0-7.15375-74.55695l-19.46966-55.63754L15.30114,2598.269a91.40816,91.40816,0,0,1-1.4498-55.52016l1.743-5.99807a61.48832,61.48832,0,0,1,12.56527-23.13044l21.20671-24.45466a63.50583,63.50583,0,0,0,15.297-45.32518l-3.51884-59.51392a20.04239,20.04239,0,0,0-10.90579-16.89544,30.74869,30.74869,0,0,1-15.25956-15.66479c-5.85311-13.99909-9.99684-25.45476-17.61543-46.301a131.10418,131.10418,0,0,1-7.30855-57.88357c2.62777-26.57491,7.77634-63.04312,17.11983-79.80345a35.239,35.239,0,0,1,8.04537-9.82154,41.57478,41.57478,0,0,0,15.40647-33.96748l-1.37551-30.54885a39.83634,39.83634,0,0,0-9.36644-23.97256l-8.98087-10.5865a19.32228,19.32228,0,0,0-4.05288-3.60468l-8.49014-5.63111a32.74588,32.74588,0,0,1-10.94431-12.20516c-5.253-10.10716-11.39466-27.75625-1.70312-43.6508.57361-.94076,3.98958-2.8956,6.91834-4.96674a34.60056,34.60056,0,0,1,12.7423-5.52992l16.95866-3.63833a25.01616,25.01616,0,0,0,19.49755-22.83634c1.75769-24.71747,4.02272-66.07567.46328-77.02125-2.80462-8.62444-13.16856-12.08319-18.77643-13.34654a20.42171,20.42171,0,0,1-7.49119-3.43385l-7.15665-5.19617a17.47328,17.47328,0,0,1-4.87072-22.57255l2.92985-5.25556a21.61924,21.61924,0,0,1,15.32008-10.87717l4.40074-.72756A20.89476,20.89476,0,0,0,63.3866,1792.6433a13.17132,13.17132,0,0,0-4.99492-7.84008c-5.8561-4.00178-10.38881-4.47287-18.09036-7.458a33.90045,33.90045,0,0,1-15.17025-11.74594L10.79159,1745.813a19.12035,19.12035,0,0,1-3.11544-15.50039l4.94715-21.41076a22.76874,22.76874,0,0,1,8.39508-13.03677l10.16569-7.70182a5.928,5.928,0,0,0,.36455-9.15028l-2.61987-2.33517a39.25693,39.25693,0,0,1-12.879-32.41028l.17482-2.19517c1.33266-16.7337,10.9505-31.25783,26.8245-37.71493l1.30778-.2666a4.51446,4.51446,0,0,0,2.32861-1.27577h0l5.85312-5.99963c4.74914-10.34452-2.71825-16.58311-9.97688-25.26346L19.3709,1543.81891l0,0A55.98886,55.98886,0,0,1,1.2456,1503.74534L.03318,1452.17079a120.1483,120.1483,0,0,1,.551-14.65719l3.7107-37.49232a87.2093,87.2093,0,0,1,16.79442-43.51435l23.55906-31.61283a66.12412,66.12412,0,0,0,12.53086-47.36143l-4.19583-34.88457a22.72187,22.72187,0,0,0-10.0939-16.28869c-5.97572-3.91986-13.12026-10.56357-14.7389-20.5185-1.95-11.99291.91564-13.30009,2.0034-21.35209a10.406,10.406,0,0,1,7.1429-8.58626h0a27.90981,27.90981,0,0,0,19.06167-22.18894l3.22018-19.39207a20.88869,20.88869,0,0,0-5.59073-17.989l-7.30257-7.48535-7.8203-6.012a21.43671,21.43671,0,0,1-7.28977-23.2701l.63606-2.06461a18.28514,18.28514,0,0,1,2.3721-4.92862l2.77469-4.063a84.34393,84.34393,0,0,0,14.462-52.47874c-1.04748-17.82365-2.29776-39.09857-2.86979-48.83361a8.063,8.063,0,0,0-5.31428-7.14866l-.27651-.1a41.01163,41.01163,0,0,1-26.6605-40.38414l1.04-25.5687a61.94224,61.94224,0,0,1,9.02847-29.81L39.0284,844.15537a101.27863,101.27863,0,0,0,13.6893-37.45144l6.51961-42.32433a20.98354,20.98354,0,0,0-9.2-20.81219l-7.254-4.6961L30.6459,733.2942a29.79708,29.79708,0,0,1-17.13449-25.53843L12.2155,683.84553a15.464,15.464,0,0,1,10.49628-15.60476l4.285-1.39754a24.17819,24.17819,0,0,0,10.3553-6.70491l6.66332-7.30113a45.66967,45.66967,0,0,0,9.88175-43.78127l-5.49986-18.39606a175.59954,175.59954,0,0,1-6.94745-38.36968L37.44928,493.5133a64.46461,64.46461,0,0,1,.75949-15.161l1.24522-7.3392a21.07617,21.07617,0,0,1,7.783-13.11321l1.86843-1.45555a29.40644,29.40644,0,0,0,9.71421-32.23644l-6.071-18.66894a30.44213,30.44213,0,0,0-11.29178-15.43253l-11.4421-8.11971a44.22248,44.22248,0,0,1-18.448-36.09046v-2.58649c0-13.19646,7.25487-25.41008,18.9007-31.0357,10.60877-5.12466,23.53441-15.874,32.80184-38.3725,18.53487-44.99707,1.951-70.99538.97552-73.99518-.30848-.94862-3.90208-17.99883-38.04526-49.99675C-27.07762,99.98,74,55.91577,74,55.91577s177.62038-89.82414,380.97485-41.778A413.63705,413.63705,0,0,0,519.18,24.2411c64.57882,4.836,194.38882,16.4256,194.38793,31.45073l3.48188,3.59034a23.36376,23.36376,0,0,1,5.58432,9.6588c2.14927,7.26166,7.31252,20.41753,18.088,28.75086,1.41729,1.09608,9.00458,3.75432,16.341,7.83377a33.75644,33.75644,0,0,1,17.08472,30.42413l-.21526,8.43485a7.03762,7.03762,0,0,1-8.91935,6.74947l-2.62214-.77252a16.38229,16.38229,0,0,0-20.33933,11.68584L736.339,182.86114c-2.12548,7.74395,3.42265,15.47536,11.226,15.63958a18.16021,18.16021,0,0,1,2.855.19111c15.59735,4.0208,8.6322,25.16367,14.08871,43.47449a49.37724,49.37724,0,0,1-3.24767,35.84136l-16.812,34.02928a24.21041,24.21041,0,0,0-1.37482,3.41457l-11.12454,35.1301a31.2664,31.2664,0,0,0,1.84643,23.42277l20.76095,41.33886a42.14974,42.14974,0,0,1,2.74632,6.9413l16.06081,54.19988a35.45076,35.45076,0,0,1-2.90722,27.12389l-13.39356,24.30691a18.45915,18.45915,0,0,1-11.0127,8.8781h0a22.26473,22.26473,0,0,0-15.74554,23.02226l2.99971,44.54135a73.02477,73.02477,0,0,0,3.57868,18.184l17.21722,51.6466a16.11285,16.11285,0,0,0,3.70927,6.12448l10.7692,11.10465a8.46238,8.46238,0,0,1,.55357,11.0651l-4.85821,6.16558a13.39569,13.39569,0,0,1-8.16714,4.92988l-7.9481,1.413A21.69437,21.69437,0,0,0,730.685,733.41736l-4.79244,33.07151a158.113,158.113,0,0,0,7.11175,74.56181l19.35535,55.64116,19.56255,56.48129a91.9331,91.9331,0,0,1,1.44129,55.52376l-1.73281,5.99847a61.60438,61.60438,0,0,1-12.4915,23.13194l-21.08221,24.45625a63.75084,63.75084,0,0,0-15.20723,45.32814l3.49818,59.51779a20.05109,20.05109,0,0,0,10.84176,16.89654,30.6616,30.6616,0,0,1,15.17,15.66582c5.81876,14,9.93816,25.45641,17.512,46.304a131.83988,131.83988,0,0,1,7.26564,57.88734c-2.61234,26.57664-7.73069,63.04723-17.01932,79.80865a35.20816,35.20816,0,0,1-7.99814,9.82218,41.68157,41.68157,0,0,0-15.316,33.96969l1.36744,30.55083a39.97308,39.97308,0,0,0,9.31145,23.97413l8.92815,10.58718a19.24641,19.24641,0,0,0,4.02908,3.60492l8.44029,5.63148a32.68234,32.68234,0,0,1,10.88007,12.20594c5.22216,10.10783,11.32776,27.75806,1.69312,43.65365-.57025.94082-3.96616,2.89579-6.87773,4.96706a34.29356,34.29356,0,0,1-12.66749,5.53029l-16.8591,3.63856a24.97362,24.97362,0,0,0-19.38308,22.83783c-1.74737,24.71908-3.99911,66.08-.46057,77.02626,2.78816,8.625,13.09126,12.084,18.6662,13.34741a20.24576,20.24576,0,0,1,7.44722,3.43408l7.11463,5.1965a17.54113,17.54113,0,0,1,4.84212,22.574l-2.91265,5.25591a21.49737,21.49737,0,0,1-15.23013,10.87787l-4.37491.72761a20.89353,20.89353,0,0,0-16.6389,25.746,13.18032,13.18032,0,0,0,4.96559,7.84059c5.82173,4.002,10.32783,4.47316,17.98416,7.4585A33.729,33.729,0,0,1,762.15,1785.897l14.2553,19.78755a19.21312,19.21312,0,0,1,3.09715,15.50139l-4.91811,21.41215a22.78346,22.78346,0,0,1-8.3458,13.03762l-10.09237,7.69194a5.95537,5.95537,0,0,0-.36576,9.17049l2.59421,2.3261a39.38034,39.38034,0,0,1,12.8034,32.41239l-.1738,2.19531c-1.32484,16.73478-10.88621,31.25986-26.667,37.71739l-1.3001.26662a4.48029,4.48029,0,0,0-2.31494,1.27585h0l-5.81875,6c-4.72127,10.34519,2.70229,16.58418,9.91831,25.2651l23.05463,27.73488,0,0a56.13894,56.13894,0,0,1,18.01887,40.07616l1.20535,51.58a120.83612,120.83612,0,0,1-.54763,14.65435l-3.68908,37.49646A87.51955,87.51955,0,0,1,766.168,2195.016l-23.42075,31.61489A66.42149,66.42149,0,0,0,730.29,2273.99541l4.1712,34.88685A22.74065,22.74065,0,0,0,744.4958,2325.172c5.94063,3.92011,13.04323,10.56426,14.65237,20.51983,1.93857,11.99369-.91027,13.301-1.99164,21.35348a10.39086,10.39086,0,0,1-7.101,8.58682h0a27.86255,27.86255,0,0,0-18.94976,22.19038l-3.20127,19.39334a20.97076,20.97076,0,0,0,5.5579,17.99014l7.2597,7.48583,7.77439,6.01241a21.51313,21.51313,0,0,1,7.247,23.27161l-.63233,2.06474a18.33381,18.33381,0,0,1-2.35817,4.92895l-2.7584,4.06331a84.72344,84.72344,0,0,0-14.37715,52.48216c1.04157,17.82893,2.28485,39.111,2.85334,48.84354a8.12462,8.12462,0,0,0,5.338,7.1625l.21959.07992c16.479,5.99744,27.23193,22.38279,26.504,40.38677l-1.03389,25.57037A62.21316,62.21316,0,0,1,760.523,2687.37l-12.18876,20.03092a101.66778,101.66778,0,0,0-13.60893,37.45388l-6.48134,42.32709a21.03523,21.03523,0,0,0,9.146,20.81353l7.21135,4.69641,12.06621,5.57748a29.80165,29.80165,0,0,1,17.0339,25.54009l1.28831,23.9118A15.46382,15.46382,0,0,1,764.555,2883.327l-4.25986,1.39763a24.02225,24.02225,0,0,0-10.29451,6.70535l-6.6242,7.30161a45.87394,45.87394,0,0,0-9.82374,43.78412l5.46757,18.39725a176.55346,176.55346,0,0,1,6.90666,38.37218l3.9771,58.78071a64.84975,64.84975,0,0,1-.75521,15.163l-1.23773,7.33864a21.10119,21.10119,0,0,1-7.73733,13.11406l-1.85746,1.45564a29.51374,29.51374,0,0,0-9.65718,32.23855l6.03539,18.67015a30.43357,30.43357,0,0,0,11.2255,15.43353l11.37492,8.12024a44.30825,44.30825,0,0,1,18.33968,36.09281v2.58666c0,13.19732-7.21227,25.41173-18.78973,31.03772-10.54649,5.125-23.39624,15.875-32.60927,38.375-18.42606,45-1.93958,71-.96979,74,.30667.94868,3.87917,18,37.82191,50,52.96437,49.93292-47.51984,94-47.51984,94s-146.00118,70-320.00118,72S74,3495.69183,74,3495.69183Z" style="fill:#f2f3f7"/></g></g></svg>